<?xml version="1.0" encoding="UTF-8"?>
<!DOCTYPE svg PUBLIC "-//W3C//DTD SVG 1.1//EN" "http://www.w3.org/Graphics/SVG/1.1/DTD/svg11.dtd">
<!-- Creator: CorelDRAW X7 -->
<svg xmlns="http://www.w3.org/2000/svg" xml:space="preserve" width="51mm" height="19.049mm" version="1.1" style="shape-rendering:geometricPrecision; text-rendering:geometricPrecision; image-rendering:optimizeQuality; fill-rule:evenodd; clip-rule:evenodd"
viewBox="0 0 5100 1905"
 xmlns:xlink="http://www.w3.org/1999/xlink">
 <defs>
  <style type="text/css">
   <![CDATA[
    .fil0 {fill:#FEFEFE}
    .fil1 {fill:#FEFEFE;fill-rule:nonzero}
   ]]>
  </style>
 </defs>
 <g id="Layer_x0020_1">
  <metadata id="CorelCorpID_0Corel-Layer"/>
  <g id="_2634959552816">
   <path class="fil0" d="M915 245c1,0 3,0 4,0l1 -1 19 1 -2 138 104 12 64 -99 186 77 -19 113 114 97 109 -42 106 157 -77 90 45 142 115 22 0 193 -115 24 -45 140 77 90 -106 157 -109 -43 -114 98 19 113 -186 77 -64 -99 -109 16 -1 104 -29 0 -1 -136 158 -27 57 91 132 -52 -22 -103 149 -126 99 42 77 -115 -78 -78 61 -179 107 -21 0 -140 -107 -20 -61 -179 78 -79 -77 -114 -99 42 -149 -126 22 -103 -132 -52 -57 91 -156 -22 1 -139c-182,3 -348,68 -479,175 5,10 8,21 8,33 0,38 -31,70 -70,70 -12,0 -24,-4 -34,-9 -103,120 -170,272 -183,439 26,11 44,36 44,66 0,29 -18,54 -44,65 15,177 90,337 204,459 10,-4 20,-7 32,-7 38,0 70,31 70,70 0,9 -2,17 -5,25 130,99 294,154 457,158 8,0 20,-1 28,-1l-1 31c-9,0 -18,2 -26,2 -169,0 -341,-61 -476,-163 -13,11 -29,18 -47,18 -39,0 -70,-31 -70,-70 0,-16 5,-30 14,-42 -119,-127 -196,-293 -212,-476 -36,-3 -64,-33 -64,-69 0,-37 28,-67 63,-70 15,-174 85,-332 192,-457 -7,-11 -12,-25 -12,-39 0,-39 32,-70 70,-70 15,0 30,5 41,13 139,-115 317,-183 511,-183z"/>
   <path class="fil0" d="M742 986c25,11 42,36 42,65 0,28 -16,52 -41,63 27,69 94,119 172,119 101,0 184,-83 184,-184 0,-101 -83,-184 -184,-184 -79,0 -147,51 -173,121zm-31 134c-37,-1 -67,-32 -67,-69 0,-38 30,-68 66,-70 29,-86 110,-148 205,-148 101,0 186,70 209,164l258 -46c-45,-216 -237,-379 -467,-379 -124,0 -237,47 -322,125 7,11 11,24 11,37 0,39 -31,70 -70,70 -9,0 -18,-1 -26,-5 -34,56 -57,119 -66,187 25,11 43,36 43,65 0,28 -18,53 -43,64 11,74 38,143 79,203 11,-7 24,-11 38,-11 38,0 70,31 70,70 0,16 -6,31 -15,42 82,67 187,107 301,107 229,0 420,-161 467,-376l-258 -47c-24,93 -109,162 -209,162 -94,0 -174,-60 -204,-145zm204 -581c251,-10 469,190 512,436l-298 52c1,15 0,31 -2,46l292 54c-37,245 -249,432 -504,432 -125,0 -239,-44 -327,-119 -9,4 -19,7 -29,7 -39,0 -70,-32 -70,-70 0,-13 3,-24 9,-35 -46,-64 -77,-140 -88,-222 -37,-2 -65,-32 -65,-69 0,-37 28,-68 64,-70 10,-73 36,-140 73,-200 -11,-12 -18,-28 -18,-47 0,-38 31,-70 70,-70 14,0 27,5 38,12 91,-81 211,-132 343,-137z"/>
   <path class="fil0" d="M942 783l0 1072 -56 0 0 -1072c-188,-50 -313,-198 -213,-402 56,110 101,199 199,260 -45,-270 -40,-428 41,-591 84,174 87,335 38,593 101,-60 147,-150 204,-262 107,219 -31,337 -213,402z"/>
   <path class="fil0" d="M914 976c38,0 69,31 69,69 0,39 -31,70 -69,70 -39,0 -70,-31 -70,-70 0,-38 31,-69 70,-69z"/>
   <path class="fil1" d="M1881 1263l22 0 0 96c0,17 3,29 9,35 6,6 15,9 26,9 7,0 13,-1 18,-3 5,-3 9,-7 12,-12 2,-6 4,-15 4,-28l0 -97 18 0 0 97c0,16 -2,28 -6,36 -4,7 -10,13 -17,17 -7,4 -17,6 -30,6 -13,0 -23,-2 -31,-6 -8,-5 -14,-11 -19,-19 -4,-7 -6,-19 -6,-35l0 -96zm147 153l0 -153 22 0 76 118 0 -118 19 0 0 153 -21 0 -77 -118 0 118 -19 0zm156 0l0 -153 22 0 0 153 -22 0zm102 0l-57 -153 22 0 47 125 45 -125 19 0 -55 153 -21 0zm97 0l0 -153 85 0 0 17 -64 0 0 48 54 0 0 16 -54 0 0 56 68 0 0 16 -89 0zm114 0l0 -153 46 0c17,0 29,4 35,12 7,8 10,16 10,26 0,6 -1,12 -3,17 -3,6 -6,11 -10,15 -4,5 -10,8 -18,11l51 72 -26 0 -44 -65 -20 0 0 65 -21 0zm21 -81l7 0c16,0 27,-3 33,-10 5,-7 8,-14 8,-22 0,-5 -1,-9 -3,-12 -2,-4 -6,-6 -10,-8 -4,-2 -11,-3 -21,-3l-14 0 0 55zm103 78l0 -22c12,6 21,9 27,11 5,1 11,1 15,1 9,0 16,-2 21,-7 5,-5 8,-10 8,-17 0,-5 -2,-10 -4,-14 -3,-4 -10,-9 -20,-15l-11 -6c-14,-8 -23,-15 -28,-22 -5,-7 -8,-14 -8,-22 0,-7 2,-14 6,-20 4,-7 9,-11 16,-15 6,-4 14,-5 24,-5 12,0 24,2 37,5l0 20c-11,-4 -19,-7 -23,-8 -4,-1 -9,-1 -13,-1 -9,0 -15,2 -19,7 -5,4 -7,9 -7,14 0,3 1,6 3,10 2,3 5,6 8,9 4,2 8,5 14,8l11 6c15,8 24,16 29,22 4,7 7,15 7,24 0,11 -5,22 -14,30 -9,9 -22,13 -40,13 -5,0 -11,0 -16,-1 -5,0 -13,-2 -23,-5zm122 3l0 -153 22 0 0 153 -22 0zm61 0l0 -153 51 0c19,0 34,3 44,9 10,6 18,14 24,25 6,11 9,24 9,39 0,14 -3,28 -8,40 -6,12 -13,21 -24,29 -11,7 -26,11 -45,11l-51 0zm22 -16l28 0c14,0 25,-3 32,-7 7,-5 13,-12 17,-22 4,-10 6,-21 6,-33 0,-11 -2,-20 -5,-29 -4,-9 -10,-16 -17,-21 -8,-6 -23,-8 -43,-8l-18 0 0 120zm118 16l61 -153 21 0 59 153 -23 0 -17 -43 -64 0 -17 43 -20 0zm43 -59l52 0 -26 -65 -26 65zm120 59l0 -153 51 0c20,0 34,3 44,9 11,6 18,14 24,25 6,11 9,24 9,39 0,14 -3,28 -8,40 -5,12 -13,21 -24,29 -11,7 -26,11 -45,11l-51 0zm22 -16l28 0c14,0 25,-3 32,-7 7,-5 13,-12 17,-22 4,-10 6,-21 6,-33 0,-11 -2,-20 -5,-29 -4,-9 -9,-16 -17,-21 -8,-6 -22,-8 -43,-8l-18 0 0 120zm136 16l0 -153 86 0 0 17 -64 0 0 48 53 0 0 16 -53 0 0 56 68 0 0 16 -90 0zm181 0l0 -153 87 0 0 17 -65 0 0 51 54 0 0 16 -54 0 0 69 -22 0zm113 0l0 -153 85 0 0 17 -63 0 0 48 53 0 0 16 -53 0 0 56 68 0 0 16 -90 0zm114 0l0 -153 51 0c19,0 34,3 44,9 10,6 18,14 24,25 6,11 9,24 9,39 0,14 -3,28 -8,40 -5,12 -13,21 -24,29 -11,7 -26,11 -45,11l-51 0zm22 -16l28 0c14,0 25,-3 32,-7 7,-5 13,-12 17,-22 4,-10 6,-21 6,-33 0,-11 -2,-20 -5,-29 -4,-9 -10,-16 -17,-21 -8,-6 -23,-8 -43,-8l-18 0 0 120zm136 16l0 -153 85 0 0 17 -63 0 0 48 53 0 0 16 -53 0 0 56 68 0 0 16 -90 0zm114 0l0 -153 46 0c17,0 29,4 36,12 6,8 10,16 10,26 0,6 -2,12 -4,17 -2,6 -5,11 -10,15 -4,5 -10,8 -17,11l51 72 -27 0 -43 -65 -20 0 0 65 -22 0zm22 -81l7 0c16,0 26,-3 32,-10 6,-7 8,-14 8,-22 0,-5 -1,-9 -3,-12 -2,-4 -5,-6 -9,-8 -5,-2 -12,-3 -22,-3l-13 0 0 55zm94 81l60 -153 21 0 60 153 -23 0 -17 -43 -65 0 -16 43 -20 0zm43 -59l52 0 -26 -65 -26 65zm120 59l0 -153 22 0 0 137 67 0 0 16 -89 0zm179 0l0 -153 46 0c17,0 29,4 35,12 7,8 10,16 10,26 0,6 -1,12 -3,17 -3,6 -6,11 -10,15 -4,5 -10,8 -17,11l50 72 -26 0 -44 -65 -20 0 0 65 -21 0zm21 -81l7 0c16,0 27,-3 33,-10 5,-7 8,-14 8,-22 0,-5 -1,-9 -3,-12 -2,-4 -5,-6 -10,-8 -4,-2 -11,-3 -21,-3l-14 0 0 55zm111 -72l22 0 0 96c0,17 3,29 9,35 6,6 15,9 26,9 7,0 13,-1 18,-3 5,-3 9,-7 11,-12 3,-6 4,-15 4,-28l0 -97 19 0 0 97c0,16 -2,28 -6,36 -4,7 -10,13 -17,17 -8,4 -18,6 -30,6 -13,0 -24,-2 -32,-6 -8,-5 -14,-11 -18,-19 -4,-7 -6,-19 -6,-35l0 -96zm147 153l0 -153 46 0c17,0 29,4 36,12 6,8 9,16 9,26 0,6 -1,12 -3,17 -2,6 -6,11 -10,15 -4,5 -10,8 -17,11l51 72 -27 0 -43 -65 -20 0 0 65 -22 0zm22 -81l7 0c16,0 26,-3 32,-10 5,-7 8,-14 8,-22 0,-5 -1,-9 -3,-12 -2,-4 -5,-6 -10,-8 -4,-2 -11,-3 -21,-3l-13 0 0 55zm93 81l61 -153 21 0 60 153 -24 0 -16 -43 -65 0 -16 43 -21 0zm44 -59l51 0 -25 -65 -26 65zm120 59l0 -153 21 0 0 137 68 0 0 16 -89 0zm-3079 240l0 -153 51 0c20,0 34,3 45,9 10,5 17,14 23,25 6,10 9,24 9,39 0,14 -3,28 -8,40 -5,12 -13,21 -24,29 -11,7 -26,11 -45,11l-51 0zm22 -17l28 0c14,0 25,-2 32,-6 7,-5 13,-12 17,-22 4,-10 6,-21 6,-33 0,-11 -2,-21 -5,-29 -4,-9 -9,-16 -17,-22 -8,-5 -22,-8 -43,-8l-18 0 0 120zm199 20c-15,0 -27,-3 -38,-9 -11,-7 -19,-16 -25,-29 -6,-12 -9,-26 -9,-42 0,-15 3,-28 9,-41 5,-12 14,-22 24,-28 11,-7 24,-10 39,-10 14,0 27,3 38,10 10,6 19,16 24,28 6,13 9,26 9,41 0,15 -3,29 -9,41 -5,13 -13,22 -24,29 -11,7 -24,10 -38,10zm0 -16c15,0 27,-5 35,-17 9,-11 13,-27 13,-47 0,-19 -4,-35 -13,-46 -8,-12 -20,-17 -35,-17 -16,0 -28,5 -36,17 -8,11 -13,27 -13,46 0,20 4,36 13,47 8,12 20,17 36,17zm168 13l0 -153 46 0c17,0 29,4 35,12 7,7 10,16 10,26 0,6 -1,12 -4,17 -2,6 -5,11 -9,15 -5,5 -10,8 -18,11l51 72 -26 0 -44 -65 -20 0 0 65 -21 0zm21 -81l7 0c16,0 27,-3 32,-10 6,-7 9,-14 9,-22 0,-5 -1,-9 -3,-12 -2,-4 -6,-7 -10,-9 -5,-2 -12,-3 -21,-3l-14 0 0 56zm112 81l0 -153 21 0 0 153 -21 0zm123 3c-15,0 -27,-3 -38,-9 -10,-7 -19,-16 -25,-29 -5,-12 -8,-26 -8,-42 0,-15 2,-28 8,-41 6,-12 14,-22 25,-28 11,-7 23,-10 38,-10 14,0 27,3 38,10 11,6 19,16 25,28 5,13 8,26 8,41 0,15 -3,29 -8,41 -6,13 -14,22 -25,29 -11,7 -23,10 -38,10zm0 -16c15,0 27,-5 35,-17 9,-11 13,-27 13,-47 0,-19 -4,-35 -13,-46 -8,-12 -20,-17 -35,-17 -15,0 -27,5 -36,17 -8,11 -12,27 -12,46 0,20 4,36 12,47 9,12 20,17 36,17zm168 13l0 -153 51 0c19,0 34,3 44,9 10,5 18,14 24,25 5,10 8,24 8,39 0,14 -2,28 -8,40 -5,12 -13,21 -24,29 -10,7 -25,11 -44,11l-51 0zm22 -17l27 0c15,0 25,-2 33,-6 7,-5 12,-12 16,-22 4,-10 6,-21 6,-33 0,-11 -1,-21 -5,-29 -3,-9 -9,-16 -17,-22 -8,-5 -22,-8 -43,-8l-17 0 0 120zm136 17l0 -153 85 0 0 16 -64 0 0 49 54 0 0 16 -54 0 0 55 68 0 0 17 -89 0zm142 28l0 -19c8,2 16,4 22,4 4,0 8,-1 11,-3 3,-1 6,-4 8,-8 2,-3 3,-10 3,-21l0 -134 22 0 0 133c0,18 -5,30 -13,38 -8,8 -20,12 -34,12 -5,0 -11,-1 -19,-2zm86 -28l61 -153 21 0 59 153 -23 0 -16 -43 -65 0 -17 43 -20 0zm43 -59l52 0 -26 -65 -26 65zm121 59l0 -153 21 0 76 118 0 -118 19 0 0 153 -21 0 -77 -118 0 118 -18 0zm155 0l0 -153 85 0 0 16 -63 0 0 49 53 0 0 16 -53 0 0 55 68 0 0 17 -90 0zm114 0l0 -153 22 0 0 153 -22 0zm61 0l0 -153 46 0c17,0 29,4 36,12 6,7 9,16 9,26 0,6 -1,12 -3,17 -2,6 -6,11 -10,15 -4,5 -10,8 -17,11l51 72 -27 0 -43 -65 -20 0 0 65 -22 0zm22 -81l6 0c16,0 27,-3 33,-10 5,-7 8,-14 8,-22 0,-5 -1,-9 -3,-12 -2,-4 -5,-7 -10,-9 -4,-2 -11,-3 -21,-3l-13 0 0 56zm174 84c-15,0 -27,-3 -38,-9 -11,-7 -19,-16 -25,-29 -6,-12 -9,-26 -9,-42 0,-15 3,-28 9,-41 5,-12 14,-22 25,-28 10,-7 23,-10 38,-10 14,0 27,3 38,10 11,6 19,16 24,28 6,13 9,26 9,41 0,15 -3,29 -9,41 -5,13 -13,22 -24,29 -11,7 -24,10 -38,10zm0 -16c15,0 27,-5 35,-17 9,-11 13,-27 13,-47 0,-19 -4,-35 -13,-46 -8,-12 -20,-17 -35,-17 -16,0 -27,5 -36,17 -8,11 -13,27 -13,46 0,20 5,36 13,47 8,12 20,17 36,17z"/>
   <path class="fil1" d="M1844 508l117 0 0 343c0,62 10,103 31,124 22,20 49,30 82,30 34,0 60,-10 80,-30 19,-20 29,-58 29,-116l0 -351 102 0 0 344c0,65 -9,111 -25,139 -16,29 -40,51 -71,67 -31,16 -69,24 -117,24 -46,0 -86,-7 -120,-22 -33,-15 -59,-38 -79,-67 -19,-30 -29,-77 -29,-142l0 -343zm576 560l0 -560 350 0 0 77 -233 0 0 170 191 0 0 77 -191 0 0 236 -117 0zm446 0l0 -560 210 0c43,0 76,5 98,16 23,11 40,27 53,49 13,22 20,46 20,74 0,33 -9,64 -29,93 -18,29 -45,51 -80,67l184 261 -142 0 -140 -229 -64 0 0 229 -110 0zm110 -306l27 0c48,0 81,-10 99,-31 19,-21 28,-45 28,-71 0,-23 -8,-42 -23,-55 -14,-14 -45,-20 -90,-20l-41 0 0 177zm426 306l0 -560 210 0c43,0 75,5 98,16 22,11 40,27 53,49 13,22 20,46 20,74 0,33 -10,64 -29,93 -19,29 -45,51 -80,67l183 261 -142 0 -139 -229 -64 0 0 229 -110 0zm110 -306l26 0c49,0 82,-10 100,-31 18,-21 28,-45 28,-71 0,-23 -8,-42 -23,-55 -15,-14 -45,-20 -91,-20l-40 0 0 177zm329 405l0 -84c30,12 61,18 94,18 13,0 25,-2 36,-7 10,-5 18,-14 25,-25 6,-11 9,-35 9,-70l0 -491 117 0 0 478c0,53 -6,91 -18,115 -12,24 -31,43 -57,58 -27,14 -61,21 -104,21 -33,0 -66,-4 -102,-13z"/>
  </g>
 </g>
</svg>
