<?xml version="1.0" encoding="UTF-8" standalone="no"?>
<!-- Created with Inkscape (http://www.inkscape.org/) -->

<svg
   xmlns:dc="http://purl.org/dc/elements/1.1/"
   xmlns:cc="http://creativecommons.org/ns#"
   xmlns:rdf="http://www.w3.org/1999/02/22-rdf-syntax-ns#"
   xmlns:svg="http://www.w3.org/2000/svg"
   xmlns="http://www.w3.org/2000/svg"
   xmlns:sodipodi="http://sodipodi.sourceforge.net/DTD/sodipodi-0.dtd"
   xmlns:inkscape="http://www.inkscape.org/namespaces/inkscape"
   width="700mm"
   height="700mm"
   viewBox="0 0 700 700"
   version="1.1"
   id="svg1154"
   inkscape:version="0.92.4 (5da689c313, 2019-01-14)"
   sodipodi:docname="ufrrj-logo.svg"
   inkscape:export-filename="C:\Users\suitedoalex\sites\ufrrj-logo-0.png"
   inkscape:export-xdpi="148.63"
   inkscape:export-ydpi="148.63">
  <defs
     id="defs1148" />
  <sodipodi:namedview
     id="base"
     pagecolor="#ffffff"
     bordercolor="#666666"
     borderopacity="1.0"
     inkscape:pageopacity="0.0"
     inkscape:pageshadow="2"
     inkscape:zoom="0.12374369"
     inkscape:cx="2459.8226"
     inkscape:cy="653.57042"
     inkscape:document-units="mm"
     inkscape:current-layer="layer1"
     showgrid="false"
     inkscape:window-width="1600"
     inkscape:window-height="837"
     inkscape:window-x="-8"
     inkscape:window-y="-8"
     inkscape:window-maximized="1" />
  <metadata
     id="metadata1151">
    <rdf:RDF>
      <cc:Work
         rdf:about="">
        <dc:format>image/svg+xml</dc:format>
        <dc:type
           rdf:resource="http://purl.org/dc/dcmitype/StillImage" />
        <dc:title></dc:title>
      </cc:Work>
    </rdf:RDF>
  </metadata>
  <g
     inkscape:label="Layer 1"
     inkscape:groupmode="layer"
     id="layer1"
     transform="translate(0,403)">
    <path
       d="m 893.62858,-114.40542 0.0146,-12.22746 10.22335,2.38556 5.85414,-8.39196 12.9355,5.70837 -1.78937,8.3505 10.43801,8.64893 8.05276,-2.98253 7.09571,9.85567 -6.20069,5.9513 3.5786,13.420494 8.94778,2.088306 -0.29887,12.824428 -7.45555,1.491415 -5.0699,13.420562 5.97156,5.659765 -6.86684,10.743481 -8.0525,-3.578805 -10.14007,8.350766 1.49143,8.94662 -13.12266,4.473941 -5.07003,-7.15753 -10.66808,1.491416 0.11822,-11.333318 c 23.73003,-1.848347 35.78566,-15.84752 39.0371,-32.121057 l -23.36353,-5.262002 c -0.67333,7.283202 -7.50749,13.577103 -14.96623,13.577103 l -0.14067,-0.945307 0.14067,-29.464937 c 7.36376,-0.08966 14.13829,5.561497 14.93767,12.712677 l 23.12086,-3.838051 c -2.5558,-17.288551 -17.49281,-32.122757 -38.75204,-32.798347"
       style="fill:#fbc707;fill-opacity:1;fill-rule:evenodd;stroke:none;stroke-width:2.85761952"
       id="path106"
       inkscape:connector-curvature="0"
       inkscape:export-filename="C:\Users\suitedoalex\sites\ufrrj-logo-5.png"
       inkscape:export-xdpi="90.944809"
       inkscape:export-ydpi="90.944809" />
    <path
       d="m 894.32209,-138.38649 c 0.10627,0 0.21266,8.4e-4 0.31853,0.003 l 0.0425,-0.0862 1.49514,0.0855 -0.13774,10.83757 8.14999,0.93469 4.99538,-7.74871 14.57889,6.0153 -1.47017,8.86975 8.93316,7.64185 8.5635,-3.36399 8.33622,12.31406 -6.08327,7.053764 3.52109,11.124999 9.00927,1.724016 v 15.175914 l -9.00927,1.850897 -3.52109,10.997773 6.08327,7.054679 -8.33622,12.313997 -8.5635,-3.36484 -8.93316,7.641846 1.47017,8.869764 -14.57889,6.015287 -4.99538,-7.747871 -8.57027,1.301679 -0.0744,8.13109 -2.24869,0.0066 -0.0425,-10.687452 12.32594,-2.119747 4.52516,7.13718 10.33108,-4.103581 -1.73278,-8.05422 11.71,-9.859928 7.74777,3.262839 6.01566,-8.971765 -6.10306,-6.163567 4.77754,-14.023256 8.35973,-1.592501 v -11.035243 l -8.35973,-1.529126 -4.77754,-14.022619 6.10306,-6.163628 -6.01566,-8.97177 -7.74777,3.26198 -11.71,-9.8599 1.73278,-8.05396 -10.33108,-4.10294 -4.52516,7.13634 -12.22247,-1.7106 0.11557,-10.88525 c -14.24296,0.19638 -27.29575,5.31604 -37.53797,13.73314 0.39478,0.75761 0.61727,1.61856 0.61727,2.53072 0,3.02853 -2.45579,5.48466 -5.4846,5.48466 -0.95758,0 -1.85738,-0.24654 -2.64069,-0.67743 -8.09473,9.41015 -13.34449,21.338737 -14.41524,34.44749 2.03803,0.800414 3.48058,2.785882 3.48058,5.10744 0,2.314929 -1.43538,4.295509 -3.46464,5.099948 1.18592,13.881485 7.0629,26.42556 16.03552,36.044027 0.7404,-0.372977 1.57551,-0.582067 2.46109,-0.582067 3.02856,0 5.48368,2.45585 5.48368,5.484654 0,0.693671 -0.12752,1.355914 -0.36303,1.966885 10.17819,7.768208 23.00889,12.077491 35.83029,12.365775 0.63001,0.01408 1.55053,-0.07771 2.18055,-0.08329 l -0.097,2.438395 c -0.64915,0.02829 -1.39566,0.133509 -2.04547,0.134213 -13.22853,0.01408 -26.72617,-4.722521 -37.30365,-12.76128 -0.97352,0.884749 -2.26717,1.42423 -3.68554,1.42423 -3.02868,0 -5.48486,-2.456129 -5.48486,-5.484867 0,-1.22481 0.40194,-2.355535 1.08071,-3.268617 -9.2675,-9.976208 -15.34453,-22.956115 -16.60496,-37.316457 -2.79796,-0.249364 -4.99233,-2.599321 -4.99233,-5.461209 0,-2.85708 2.1856,-5.203782 4.97546,-5.461195 1.14354,-13.624006 6.6211,-26.017525 15.04964,-35.796285 -0.60823,-0.88214 -0.96475,-1.95232 -0.96475,-3.10481 0,-3.0288 2.45578,-5.48486 5.4846,-5.48486 1.19787,0 2.30701,0.38498 3.20947,1.03613 10.89003,-8.96865 24.83731,-14.35723 40.04409,-14.35723"
       style="fill:#1d3c85;fill-opacity:1;fill-rule:evenodd;stroke:none;stroke-width:2.85761952"
       id="path108"
       inkscape:connector-curvature="0"
       inkscape:export-filename="C:\Users\suitedoalex\sites\ufrrj-logo-5.png"
       inkscape:export-xdpi="90.944809"
       inkscape:export-ydpi="90.944809" />
    <path
       d="m 880.79124,-80.247121 c 1.93748,0.84668 3.29289,2.779307 3.29289,5.028817 0,2.219556 -1.32061,4.130984 -3.21771,4.99371 2.06234,5.424042 7.3097,9.280664 13.45567,9.280664 7.94703,0 14.39186,-6.444785 14.39186,-14.39185 0,-7.946427 -6.44483,-14.391212 -14.39186,-14.391212 -6.22102,0 -11.52271,3.95064 -13.53085,9.479871 z m -2.43666,10.507174 c -2.91458,-0.127783 -5.23926,-2.532413 -5.23926,-5.478357 0,-2.919311 2.28098,-5.30573 5.15744,-5.475183 2.24219,-6.715972 8.58063,-11.559077 16.04986,-11.559077 7.9271,0 14.58168,5.455483 16.41475,12.817294 l 20.2031,-3.582045 c -3.54394,-16.97337 -18.59372,-29.727515 -36.61838,-29.727515 -9.72444,0 -18.58229,3.71316 -25.23501,9.79817 0.54103,0.84987 0.85437,1.85923 0.85437,2.94199 0,3.028734 -2.45498,5.484863 -5.4838,5.484863 -0.71357,0 -1.39473,-0.136325 -2.01943,-0.384281 -2.68625,4.365312 -4.49966,9.323555 -5.20034,14.63246 1.96749,0.832692 3.34774,2.781631 3.34774,5.053112 0,2.258409 -1.36577,4.198449 -3.31719,5.038287 0.80615,5.842156 2.9608,11.253832 6.14012,15.910097 0.85889,-0.55805 1.88355,-0.882145 2.98432,-0.882145 3.02882,0 5.4846,2.45585 5.4846,5.484587 0,1.265363 -0.42944,2.430134 -1.14846,3.358332 6.43647,5.239394 14.64783,8.383057 23.59308,8.383057 17.94948,0 32.94798,-12.649529 36.57215,-29.517432 l -20.1926,-3.647824 c -1.88341,7.288076 -8.50279,12.672987 -16.37902,12.672987 -7.3809,0 -13.65797,-4.729654 -15.96804,-11.321576 z m 15.96751,-45.588733 c 19.66898,-0.77703 36.78189,14.89876 40.12499,34.175119 l -23.32011,4.05357 c 0.0877,1.219869 -0.0213,2.440654 -0.15263,3.661439 l 22.88031,4.192658 c -2.93384,19.195199 -19.51862,33.90401 -39.53283,33.90401 -9.76986,0 -18.72083,-3.507461 -25.66684,-9.32843 -0.69019,0.312937 -1.45569,0.487411 -2.26238,0.487411 -3.02881,0 -5.48486,-2.45585 -5.48486,-5.484654 0,-0.970438 0.25291,-1.880837 0.69444,-2.671581 -3.56572,-5.064269 -5.98471,-10.992965 -6.88212,-17.409137 -2.85069,-0.196378 -5.10337,-2.570138 -5.10337,-5.470095 0,-2.890221 2.23661,-5.258894 5.07335,-5.470321 0.77281,-5.713801 2.76714,-10.992965 5.7148,-15.620618 -0.88944,-0.975327 -1.43206,-2.27205 -1.43206,-3.695431 0,-3.02852 2.45592,-5.48465 5.48474,-5.48465 1.10409,0 2.13207,0.32705 2.99295,0.88872 7.10328,-6.36221 16.53284,-10.31999 26.87135,-10.72807"
       style="fill:#1d3c85;fill-opacity:1;fill-rule:evenodd;stroke:none;stroke-width:2.85761952"
       id="path110"
       inkscape:connector-curvature="0"
       inkscape:export-filename="C:\Users\suitedoalex\sites\ufrrj-logo-5.png"
       inkscape:export-xdpi="90.944809"
       inkscape:export-ydpi="90.944809" />
    <path
       d="m 896.43211,-96.208092 v 84.03634 h -4.34358 v -84.04431 c -14.75861,-3.904388 -24.58426,-15.481458 -16.72942,-31.517588 4.39512,8.64801 7.89854,15.64097 15.59239,20.38058 -3.48748,-21.09977 -3.11702,-33.53159 3.2448,-46.29513 6.59294,13.60853 6.78741,26.2604 2.9462,46.51772 7.94875,-4.74281 11.49361,-11.8191 15.95754,-20.60317 8.43744,17.22463 -2.40717,26.41275 -16.66793,31.525558"
       style="fill:#008940;fill-opacity:1;fill-rule:evenodd;stroke:none;stroke-width:2.85761952"
       id="path112"
       inkscape:connector-curvature="0"
       inkscape:export-filename="C:\Users\suitedoalex\sites\ufrrj-logo-5.png"
       inkscape:export-xdpi="90.944809"
       inkscape:export-ydpi="90.944809" />
    <path
       d="m 894.22406,-81.063568 c 2.99853,0 5.4312,2.432458 5.4312,5.432093 0,2.999634 -2.43267,5.431175 -5.4312,5.431175 -2.99959,0 -5.43226,-2.431541 -5.43226,-5.431175 0,-2.999635 2.43267,-5.432093 5.43226,-5.432093"
       style="fill:#1d3c85;fill-opacity:1;fill-rule:evenodd;stroke:none;stroke-width:2.85761952"
       id="path114"
       inkscape:connector-curvature="0"
       inkscape:export-filename="C:\Users\suitedoalex\sites\ufrrj-logo-5.png"
       inkscape:export-xdpi="90.944809"
       inkscape:export-ydpi="90.944809" />
    <path
       d="m 836.20034,3.8686128 -1.38025,-1.117869 4.97373,-6.142446 c 0.86752,-1.071034 1.26282,-1.966882 1.18419,-2.687898 -0.0744,-0.721581 -0.46823,-1.37224 -1.18499,-1.952047 -0.45136,-0.365206 -0.89674,-0.595491 -1.33163,-0.691561 -0.43728,-0.09819 -0.88559,-0.04239 -1.33907,0.171654 -0.45708,0.214038 -1.01683,0.730694 -1.68404,1.554561 l -5.01172,6.19019802 -1.21022,-0.98019202 4.99551,-6.169289 c 0.8569,-1.057047 1.60301,-1.713148 2.24193,-1.96922 0.63865,-0.2557138 1.30825,-0.3263528 2.00415,-0.2168598 0.6987,0.111578 1.43936,0.4860018 2.22519,1.1218988 0.83764,0.677431 1.39885,1.366518 1.68656,2.072064 0.28545,0.702862 0.35957,1.410244 0.2205,2.118898 -0.13854,0.708725 -0.61315,1.566005 -1.42568,2.569578 z m -1.35422,-17.4183288 -9.16057,8.5425638 -1.18857,-1.273346 2.77683,-11.2050328 -7.07406,6.596876 -1.03847,-1.113909 9.1615,-8.542561 1.18193,1.267621 -2.77272,11.2127258 7.07566,-6.5979968 z m -8.40104,-9.617617 -9.87109,7.711556 -1.09333,-1.400493 9.87015,-7.711555 z m -4.82775,-6.987147 -8.11825,10.646341 -0.94257,-1.509148 6.64621,-8.721697 -10.68348,2.260667 -0.82395,-1.317632 13.03287,-2.781924 z m -3.99185,-6.743668 -11.44327,5.095086 -2.85388,-6.41046 1.21368,-0.540384 2.13181,4.787369 3.67371,-1.635444 -1.78711,-4.0138 1.19814,-0.534035 1.78684,4.013867 4.14407,-1.8446 -2.28005,-5.120019 1.21421,-0.540384 z m -3.62071,-8.727209 -11.9123,3.871246 -1.17317,-3.608041 c -0.43303,-1.334808 -0.43369,-2.355549 -10e-4,-3.061082 0.4317,-0.702159 1.03541,-1.181095 1.80743,-1.431376 0.4507,-0.146925 0.92504,-0.199911 1.42581,-0.165295 0.49798,0.03533 0.97179,0.166716 1.42302,0.38711 0.45136,0.221097 0.88931,0.579941 1.31304,1.077314 l 4.28593,-5.785224 0.67385,2.072074 -3.93672,5.030225 0.5122,1.577171 5.03908,-1.637145 z m -6.84638,0.375102 -0.17733,-0.54676 c -0.40607,-1.249955 -0.94204,-2.011237 -1.60394,-2.27953 -0.66336,-0.267017 -1.30653,-0.300916 -1.92698,-0.09962 -0.37073,0.120743 -0.66814,0.307982 -0.89117,0.558754 -0.22329,0.25501 -0.35466,0.580659 -0.39916,0.977585 -0.0425,0.396993 0.0571,0.977013 0.30658,1.737445 l 0.34549,1.063606 z m 3.53981,-10.028252 -1.73265,0.305167 c 0.27975,-1.076478 0.42453,-1.853447 0.43795,-2.327216 0.0146,-0.474699 -0.0146,-0.910478 -0.0837,-1.30253 -0.12487,-0.708721 -0.41749,-1.237668 -0.87643,-1.579695 -0.45773,-0.344019 -0.95665,-0.466928 -1.49448,-0.372273 -0.40753,0.07199 -0.76391,0.245818 -1.06929,0.522731 -0.3002,0.279729 -0.61674,0.898391 -0.95333,1.849196 l -0.34191,0.940419 c -0.44153,1.253926 -0.89594,2.123214 -1.36165,2.61012 -0.46345,0.483173 -1.01988,0.784169 -1.67115,0.899028 -0.58353,0.10321 -1.15762,0.04237 -1.72455,-0.176599 -0.56586,-0.220394 -1.03767,-0.565104 -1.42089,-1.037611 -0.38003,-0.472587 -0.63998,-1.104731 -0.78012,-1.898012 -0.16883,-0.959002 -0.18782,-1.994075 -0.0571,-3.113643 l 1.60155,-0.282559 c -0.19845,0.988171 -0.30511,1.66144 -0.31933,2.018596 -0.0146,0.35814 0.0133,0.708721 0.0704,1.049619 0.12619,0.716996 0.40474,1.216774 0.8391,1.495374 0.43369,0.277604 0.84494,0.384985 1.23134,0.316457 0.26766,-0.04941 0.52336,-0.177303 0.77122,-0.387801 0.24733,-0.211215 0.44432,-0.474699 0.59203,-0.782761 0.14837,-0.310811 0.3172,-0.730332 0.5029,-1.258721 l 0.34337,-0.979338 c 0.44857,-1.263597 0.90816,-2.136923 1.37786,-2.618754 0.4754,-0.479641 1.06676,-0.78324 1.77236,-0.908061 0.9621,-0.17025 1.85964,0.04941 2.69501,0.659772 0.83591,0.612445 1.37932,1.631407 1.63144,3.061933 0.0784,0.441491 0.12486,0.873312 0.13774,1.296233 0.0146,0.425246 -0.0212,1.091872 -0.11423,2.00065 z m -1.4015,-9.991656 -12.43313,1.526802 -0.21612,-1.763441 12.43234,-1.526802 z m -0.64556,-5.046616 -12.51921,-0.437254 0.14479,-4.16038 c 0.0571,-1.608041 0.33274,-2.81561 0.82608,-3.627474 0.49373,-0.812422 1.19561,-1.438575 2.10697,-1.877529 0.90816,-0.440083 1.99353,-0.639277 3.24998,-0.595482 1.19123,0.04237 2.27526,0.296678 3.25051,0.761561 0.97843,0.464803 1.74965,1.147608 2.31671,2.049173 0.56652,0.901579 0.82462,2.132964 0.76949,3.701222 z m -1.26628,-1.821727 0.0797,-2.275213 c 0.0425,-1.183632 -0.11556,-2.076377 -0.47049,-2.679006 -0.35452,-0.601845 -0.93061,-1.084447 -1.73251,-1.445137 -0.80044,-0.360265 -1.69799,-0.558755 -2.69674,-0.59337 -0.88041,-0.02829 -1.68563,0.08475 -2.42032,0.345427 -0.73482,0.263484 -1.33402,0.708084 -1.79256,1.336495 -0.45853,0.625156 -0.71848,1.79601 -0.77852,3.501736 l -0.0492,1.46449 z m 1.55851,-9.704143 -11.71305,-6.664261 0.24441,-1.736596 13.08533,-3.10566 -0.26699,1.902874 -3.62576,0.869858 -0.73868,5.255493 3.24388,1.844548 z m -4.24927,-4.179879 0.59349,-4.222678 -5.64267,1.351053 z m 6.40884,-9.018881 -12.04115,-3.453198 1.147,-4.001513 c 0.44432,-1.54629 1.00367,-2.6513 1.67912,-3.32026 0.67677,-0.66825 1.50777,-1.1065 2.49816,-1.3122 0.98853,-0.20626 2.08916,-0.13703 3.29766,0.2091 1.14713,0.32917 2.13606,0.83842 2.97051,1.52538 0.8367,0.68732 1.41917,1.5374 1.75124,2.54902 0.33261,1.01191 0.28466,2.26894 -0.14837,3.777227 z m -0.78809,-2.074398 0.6279,-2.188605 c 0.32636,-1.138218 0.39065,-2.042968 0.1922,-2.713048 -0.19858,-0.66967 -0.64077,-1.27738 -1.33256,-1.82088 -0.68873,-0.54392 -1.51175,-0.95328 -2.47212,-1.22877 -0.8476,-0.243 -1.65654,-0.32494 -2.43187,-0.25007 -0.77693,0.0784 -1.4662,0.36451 -2.06314,0.86358 -0.59628,0.49659 -1.13172,1.56883 -1.60234,3.20998 l -0.40394,1.407923 z m 4.82138,-10.316583 -11.35282,-5.29428 2.96559,-6.35967 1.20451,0.56158 -2.21456,4.75015 3.64423,1.69945 1.85751,-3.98238 1.18844,0.55382 -1.85658,3.98208 4.11006,1.91751 2.36838,-5.07975 1.20465,0.56159 z m 6.8254,-13.18993 -10.13463,-7.36232 4.18073,-5.75442 1.07501,0.78071 -3.13655,4.31762 3.39663,2.46665 2.64387,-3.63885 1.06026,0.77125 -2.64307,3.63856 4.60193,3.34399 z m 5.41659,-7.53892 -9.45307,-8.21768 4.6034,-5.29604 1.00274,0.87161 -3.4378,3.95525 3.03519,2.63844 2.88217,-3.31631 0.98986,0.86011 -2.88283,3.3163 3.42319,2.97626 3.67663,-4.23017 1.00275,0.87155 z m 6.10612,-7.09834 -8.05183,-9.59564 3.18901,-2.67639 c 1.2328,-1.03452 2.31525,-1.63628 3.24918,-1.81345 0.93381,-0.1766 1.86854,-0.0735 2.8042,0.3094 0.935,0.38075 1.80876,1.05387 2.61731,2.01718 0.7663,0.91358 1.30241,1.88889 1.60965,2.9256 0.30936,1.03791 0.31786,2.06725 0.0279,3.09195 -0.29103,1.02477 -1.03356,2.04064 -2.23502,3.04908 l -3.20907,2.69249 z m 0.50714,-2.16036 1.74408,-1.46364 c 0.90724,-0.76071 1.46539,-1.47516 1.67593,-2.14187 0.20987,-0.66541 0.18304,-1.41673 -0.0863,-2.2543 -0.26699,-0.83588 -0.72008,-1.6363 -1.36218,-2.40154 -0.56653,-0.6753 -1.19163,-1.19479 -1.87691,-1.56685 -0.6866,-0.37014 -1.4185,-0.51777 -2.19291,-0.43795 -0.77095,0.0784 -1.81514,0.66754 -3.12339,1.76514 l -1.12189,0.94105 z m 9.61512,-6.22191 -7.18497,-10.26059 5.74867,-4.02523 0.76152,1.08876 -4.29244,3.0062 2.30608,3.29426 3.60013,-2.52069 0.75235,1.07477 -3.59972,2.52014 2.6019,3.71549 4.59051,-3.21487 0.76205,1.08848 z m 7.77727,-5.17914 -5.68663,-11.16073 3.37975,-1.72226 c 1.25034,-0.63717 2.25827,-0.79787 3.02351,-0.48035 0.76072,0.31575 1.32764,0.83693 1.69638,1.56021 0.21546,0.42313 0.34258,0.883 0.38641,1.38284 0.0425,0.49801 -0.0146,0.98555 -0.16033,1.46598 -0.14771,0.48034 -0.43382,0.96952 -0.85888,1.46534 l 6.38493,3.32852 -1.94107,0.9891 -5.58422,-3.10171 -1.47748,0.7533 2.40584,4.72104 z m -1.44108,-6.70395 0.51286,-0.26067 c 1.1713,-0.5969 1.83971,-1.24501 2.00083,-1.94004 0.16046,-0.69791 0.093,-1.33818 -0.20336,-1.91969 -0.17733,-0.34754 -0.40899,-0.61174 -0.69152,-0.79215 -0.28758,-0.18084 -0.62869,-0.25995 -1.02798,-0.24158 -0.39903,0.0141 -0.95585,0.21192 -1.66849,0.575 l -0.9965,0.50719 z m 9.88397,2.19349 0.85556,-13.44825 1.66756,-0.54251 8.52724,10.40002 -1.82656,0.59407 -2.37184,-2.87735 -5.04705,1.63975 -0.23604,3.72432 z m 1.8939,-5.6515 4.05587,-1.31792 -3.68806,-4.47875 z m 10.81791,1.54622 -2.60429,-12.25261 1.73836,-0.36945 2.32814,10.95236 5.44262,-1.15672 0.27616,1.30019 z m 14.58726,-2.46496 -0.21891,-12.5238 3.7926,-0.0636 c 1.40389,-0.0283 2.3798,0.27266 2.92733,0.8933 0.54541,0.61739 0.82727,1.33509 0.84109,2.14666 0.0133,0.47328 -0.0784,0.94276 -0.25862,1.41195 -0.18225,0.4648 -0.44432,0.87959 -0.78756,1.2465 -0.34257,0.36802 -0.81412,0.68236 -1.41332,0.94127 l 4.27836,5.7901 -2.17711,0.0353 -3.65976,-5.23516 -1.6584,0.0283 0.093,5.29775 z m 1.64246,-6.65684 0.57502,-0.0141 c 1.31397,-0.0213 2.19929,-0.31293 2.64879,-0.86675 0.44923,-0.55663 0.67106,-1.1613 0.65897,-1.81345 0,-0.39063 -0.0983,-0.72984 -0.27469,-1.01586 -0.17879,-0.28821 -0.45003,-0.50931 -0.81731,-0.66755 -0.36662,-0.15823 -0.95187,-0.22817 -1.75231,-0.21474 l -1.11791,0.0213 0.0797,4.56931 z m 10.08427,-5.87841 1.77237,0.12433 -0.55178,7.88478 c -0.097,1.37394 0.0943,2.33462 0.57224,2.88045 0.47394,0.54817 1.17037,0.85558 2.08983,0.91959 0.57914,0.0424 1.07633,-0.0283 1.48784,-0.19709 0.4147,-0.17094 0.74877,-0.47469 0.99903,-0.90898 0.25078,-0.43727 0.41323,-1.18166 0.48669,-2.23956 l 0.5559,-7.94502 1.55373,0.10879 -0.55391,7.91909 c -0.0943,1.35763 -0.33048,2.32234 -0.7064,2.89904 -0.37644,0.57572 -0.88518,1.01813 -1.51786,1.32676 -0.63573,0.30939 -1.45822,0.42878 -2.46588,0.35814 -1.07553,-0.0756 -1.92937,-0.31717 -2.57015,-0.72985 -0.63719,-0.41254 -1.10329,-0.94926 -1.39645,-1.60937 -0.2925,-0.66048 -0.39491,-1.63489 -0.30525,-2.92363 z m 11.03416,13.94006 2.60442,-12.25262 3.70984,0.78813 c 1.37388,0.29244 2.25774,0.80182 2.65211,1.53026 0.39278,0.72412 0.50582,1.48626 0.33699,2.2801 -0.0983,0.46339 -0.2889,0.90156 -0.56944,1.31707 -0.28253,0.41253 -0.63082,0.75839 -1.04804,1.03846 -0.41682,0.28045 -0.94682,0.48106 -1.58919,0.59833 l 2.86676,6.60506 -2.13035,-0.4528 -2.38817,-5.92439 -1.6216,-0.34542 -1.1017,5.1826 z m 3.09948,-6.11673 0.56228,0.11941 c 1.28554,0.27409 2.21297,0.19002 2.7759,-0.24864 0.56294,-0.44151 0.91388,-0.98098 1.04977,-1.61942 0.081,-0.38145 0.0704,-0.73294 -0.0425,-1.05133 -0.10892,-0.3214 -0.32557,-0.59761 -0.64702,-0.83439 -0.32145,-0.23593 -0.87562,-0.43655 -1.65826,-0.60325 l -1.09334,-0.2324 z m 6.24041,8.25851 9.1275,-9.91339 1.63688,0.62869 0.0837,13.44881 -1.79348,-0.68802 -0.0359,-3.72948 -4.95394,-1.90118 -2.52751,2.74618 z m 5.02766,-3.20053 3.98162,1.52849 -0.0492,-5.80147 z m 7.3724,8.21677 5.68637,-11.16123 1.58282,0.80663 -5.08318,9.97739 4.95752,2.52557 -0.60332,1.18419 z m 12.65098,7.71502 7.71165,-9.87107 3.2804,2.56273 c 1.26854,0.9907 2.08266,1.924 2.44954,2.80134 0.36661,0.87642 0.46198,1.81196 0.2812,2.80756 -0.17866,0.99305 -0.65552,1.98864 -1.42913,2.97851 -0.73469,0.94042 -1.5771,1.66688 -2.52725,2.18297 -0.95107,0.51849 -1.95607,0.74037 -3.01872,0.66895 -1.06278,-0.0713 -2.21071,-0.58631 -3.44697,-1.55202 z m 2.21775,0.0494 1.79428,1.40218 c 0.93328,0.72901 1.74806,1.12677 2.44303,1.19396 0.69577,0.0636 1.42475,-0.11517 2.18893,-0.55311 0.76126,-0.43515 1.44999,-1.04419 2.06553,-1.83147 0.54181,-0.69509 0.92105,-1.4142 1.14221,-2.16121 0.21824,-0.74928 0.21187,-1.49594 -0.0279,-2.23638 -0.23737,-0.7381 -1.03024,-1.63713 -2.37582,-2.68838 l -1.15417,-0.90165 -6.07623,7.7762 z m 10.72811,12.22033 c -0.77759,-0.89445 -1.25313,-1.84694 -1.43059,-2.85623 -0.17308,-1.00931 -0.0359,-2.03231 0.4147,-3.06363 0.45348,-1.03275 1.16559,-1.97006 2.13606,-2.81336 0.93699,-0.81469 1.94146,-1.38192 3.00995,-1.70171 1.07102,-0.32212 2.10949,-0.32564 3.11396,-0.0141 1.0058,0.31575 1.89949,0.92184 2.68014,1.82031 0.78105,0.89811 1.25565,1.86629 1.42913,2.90702 0.17095,1.03761 0.0213,2.06578 -0.44578,3.08135 -0.46544,1.01333 -1.16639,1.92895 -2.10458,2.74448 -0.93301,0.81101 -1.9303,1.3762 -2.99136,1.69712 -1.06278,0.32211 -2.09541,0.332 -3.104,0.0283 -1.00699,-0.30375 -1.90865,-0.91357 -2.70803,-1.83372 z m 1.00301,-0.87163 c 0.8278,0.95251 1.82576,1.38256 2.98963,1.28536 1.16334,-0.096 2.35895,-0.67672 3.58698,-1.74309 1.22071,-1.06109 1.95447,-2.16271 2.2026,-3.30085 0.24787,-1.13736 -0.0359,-2.17893 -0.86127,-3.12508 -0.82223,-0.94622 -1.81435,-1.37394 -2.97516,-1.28797 -1.16068,0.0869 -2.35403,0.66118 -3.57475,1.72205 -1.2271,1.06757 -1.96843,2.17089 -2.22585,3.30994 -0.25796,1.13878 0.0279,2.18694 0.85782,3.13964 z m 7.6362,11.7171 10.84779,-6.26331 1.8963,3.28487 c 0.70215,1.21591 0.91468,2.21377 0.63852,2.99447 -0.27615,0.77612 -0.76697,1.36991 -1.47031,1.77574 -0.40965,0.23664 -0.8626,0.3878 -1.35992,0.45844 -0.49586,0.0636 -0.98495,0.0353 -1.47284,-0.0841 -0.48735,-0.1222 -0.99038,-0.38216 -1.50816,-0.78014 l -2.98963,6.54912 -1.08882,-1.88579 2.8042,-5.73924 -0.82927,-1.43596 -4.58825,2.64961 z m 6.61871,-1.79029 0.28745,0.49801 c 0.65698,1.13822 1.34,1.7717 2.04215,1.89631 0.70573,0.12287 1.34133,0.0213 1.90692,-0.30374 0.33766,-0.19497 0.58911,-0.44008 0.75409,-0.73211 0.16603,-0.29668 0.22674,-0.64141 0.18795,-1.03932 -0.0425,-0.39769 -0.26141,-0.94275 -0.6619,-1.63629 l -0.55882,-0.96783 z m -1.33415,11.38022 11.35268,-5.29351 0.75076,1.6103 -11.35255,5.2935 z m 3.44033,9.52041 c -0.38575,-1.12048 -0.46983,-2.18148 -0.25584,-3.1842 0.21692,-1.00132 0.72752,-1.89724 1.53168,-2.68451 0.80708,-0.78812 1.81939,-1.39018 3.03453,-1.80886 1.17449,-0.40406 2.3183,-0.55382 3.42877,-0.44997 1.11392,0.10175 2.07788,0.48811 2.8912,1.15502 0.81413,0.66966 1.41585,1.56572 1.80305,2.69192 0.38787,1.125 0.46558,2.20148 0.23671,3.2302 -0.23099,1.02645 -0.75275,1.92464 -1.56767,2.691001 -0.8116,0.764749 -1.80465,1.351119 -2.97914,1.755458 -1.16892,0.403354 -2.30635,0.553107 -3.40938,0.453511 -1.10675,-0.09883 -2.06805,-0.477527 -2.89014,-1.134749 -0.81904,-0.658365 -1.42661,-1.561981 -1.82351,-2.714461 z m 1.25618,-0.43301 c 0.41111,1.1931 1.17529,1.966031 2.29094,2.312734 1.11445,0.345428 2.44064,0.255713 3.97816,-0.272676 1.52982,-0.527668 2.62355,-1.273348 3.27867,-2.235798 0.65566,-0.96154 0.78105,-2.03491 0.37299,-3.21997 -0.40819,-1.18589 -1.16692,-1.95373 -2.27606,-2.30834 -1.10901,-0.35462 -2.43015,-0.26914 -3.95956,0.25783 -1.53819,0.5298 -2.63816,1.27505 -3.30391,2.23405 -0.66536,0.95992 -0.79248,2.03893 -0.3807,3.2328 z m 2.41474,13.772904 12.47856,-1.091872 0.36316,4.147522 c 0.13987,1.603086 0.0146,2.834192 -0.3787,3.700943 -0.39132,0.86667 -1.01071,1.573066 -1.86136,2.120583 -0.8488,0.546747 -1.90122,0.876421 -3.15342,0.985913 -1.18817,0.104538 -2.29492,-0.01408 -3.31945,-0.358843 -1.02811,-0.341894 -1.87597,-0.925874 -2.5493,-1.75207 -0.67252,-0.825214 -1.07819,-2.016046 -1.215,-3.579443 z m 1.47854,1.65424 0.19845,2.26816 c 0.10361,1.179315 0.36808,2.046915 0.79287,2.600941 0.42533,0.553813 1.05654,0.963026 1.89643,1.22311 0.8375,0.259964 1.75284,0.348256 2.74934,0.260668 0.87722,-0.07625 1.66225,-0.29033 2.35948,-0.638586 0.69657,-0.350369 1.23786,-0.864971 1.61603,-1.544522 0.37923,-0.677439 0.49519,-1.870608 0.34602,-3.571459 l -0.12751,-1.459124 z m -0.6259,11.351954 12.52399,0.218269 -0.1222,7.015692 -1.32845,-0.02125 0.0917,-5.240031 -4.02094,-0.07067 -0.0757,4.39391 -1.31158,-0.02125 0.0757,-4.393565 -4.53473,-0.07983 -0.0983,5.60375 -1.32831,-0.02125 0.12884,-7.379278 z m -3.0603,11.178397 1.55054,0.272663 c -0.33619,0.627282 -0.54952,1.202707 -0.6421,1.726288 -0.0638,0.35531 -0.0492,0.67178 0.0359,0.950659 0.085,0.279743 0.26487,0.524856 0.53903,0.737333 0.27682,0.210511 0.83431,0.391347 1.67938,0.540397 l 10.83664,1.910087 -0.3087,1.749666 -10.77686,-1.899699 c -1.41651,-0.250068 -2.3822,-0.763833 -2.89997,-1.538252 -0.51778,-0.774977 -0.66761,-1.76979 -0.45349,-2.981689 0.0704,-0.386393 0.21612,-0.87727 0.44074,-1.467665 z m 0.95998,7.449839 10.81312,8.041867 -0.45415,1.694076 -13.36654,1.487098 0.49732,-1.854921 3.70493,-0.42243 1.37308,-5.126009 -2.99482,-2.226623 z m 3.70824,4.666506 -1.10409,4.118976 5.76514,-0.65341 z m -7.62238,8.11244 11.44341,5.094303 -0.70879,1.591716 -11.39865,1.821993 8.83567,3.934128 -0.61873,1.390172 -11.44327,-5.094223 0.70493,-1.583734 11.40529,-1.829138 -8.83886,-3.934965 z m -5.59313,11.506517 10.62252,6.638266 -3.71808,5.95129 -1.12668,-0.704975 2.77697,-4.443922 -3.41017,-2.130918 -2.32907,3.726088 -1.11206,-0.695092 2.32893,-3.726287 -3.84692,-2.403302 -2.96971,4.752554 -1.12667,-0.703567 z m -5.12515,7.869571 9.87015,7.712486 -1.0936,1.399642 -9.87108,-7.711555 z m -3.09112,4.075262 9.16057,8.542561 -2.58715,2.7745008 c -0.95679,1.027026 -1.84928,1.521925 -2.67615,1.485688 -0.82302,-0.03532 -1.53434,-0.332712 -2.12809,-0.886172 -0.34696,-0.322822 -0.62378,-0.712116 -0.83591,-1.166469 -0.20841,-0.45492 -0.3249,-0.9315848 -0.35107,-1.4331288 -0.0279,-0.502248 0.0757,-1.059595 0.30511,-1.671123 l -7.13795,-0.943593 1.48559,-1.593417 6.30855,1.004497 1.13079,-1.212524 -3.87522,-3.613699 z m 3.64688,5.80641 -0.39212,0.420305 c -0.89674,0.961552 -1.30241,1.799185 -1.21673,2.50784 0.0877,0.710421 0.3702,1.288742 0.84733,1.7342708 0.28532,0.265596 0.59402,0.435137 0.92092,0.507189 0.33208,0.07275 0.67956,0.02825 1.0491,-0.12433 0.36874,-0.153991 0.82528,-0.52556 1.37135,-1.1104558 l 0.76218,-0.818147 z m -15.21515,5.1551238 c 0.92052,-0.746097 1.88926,-1.1884378 2.90422,-1.3302088 1.0147,-0.137746 2.03245,0.03533 3.04742,0.522027 1.01642,0.4881138 1.92777,1.2336428 2.73698,2.2324128 0.78158,0.96557 1.31304,1.988569 1.5957,3.068221 0.28532,1.081558 0.25212,2.11918 -0.0956,3.112229 -0.35187,0.99389602 -0.9876,1.86544402 -1.91264,2.61471602 -0.92504,0.74920098 -1.91011,1.19020198 -2.9551,1.32703098 -1.04339,0.134214 -2.06552,-0.04945 -3.06415,-0.5524 -0.9965,-0.50154 -1.88753,-1.23364598 -2.66911,-2.19928598 -0.77839,-0.96069502 -1.30825,-1.97804402 -1.59171,-3.04872502 -0.28612,-1.073365 -0.25916,-2.106111 0.0784,-3.104246 0.33845,-0.994744 0.97936,-1.874346 1.92698,-2.641347 z m 0.83617,1.0319 c -0.98096,0.794692 -1.446,1.777145 -1.38941,2.943613 0.0571,1.166538 0.59415,2.381606 1.61775,3.645203 1.01722,1.25709702 2.09315,2.03003402 3.22076,2.31668802 1.12827,0.286796 2.17989,0.03532 3.15434,-0.750967 0.97432,-0.789041 1.43617,-1.76577102 1.38981,-2.92906102 -0.0491,-1.163078 -0.57702,-2.374966 -1.59557,-3.632064 -1.02399,-1.264445 -2.10045,-2.04289 -3.22979,-2.340353 -1.12893,-0.297391 -2.18693,-0.04944 -3.16789,0.746941"
       style="fill:#1d3c85;fill-opacity:1;fill-rule:nonzero;stroke:none;stroke-width:2.85761952"
       id="path116"
       inkscape:connector-curvature="0"
       inkscape:export-filename="C:\Users\suitedoalex\sites\ufrrj-logo-5.png"
       inkscape:export-xdpi="90.944809"
       inkscape:export-ydpi="90.944809" />
    <path
       d="m 865.43874,2.8738688 h 2.8665 v 8.4428872 c 0,1.525387 0.25995,2.536095 0.77866,3.035303 0.51777,0.495889 1.18817,0.74355 2.01425,0.74355 0.81332,0 1.46234,-0.244412 1.94186,-0.73465 0.47965,-0.492356 0.72087,-1.436239 0.72087,-2.840761 V 2.8738688 h 2.4951 v 8.4623122 c 0,1.595108 -0.2007,2.738689 -0.60053,3.428836 -0.40115,0.692971 -0.97936,1.239367 -1.73517,1.636289 -0.75979,0.396994 -1.71618,0.594784 -2.87646,0.594784 -1.14354,0 -2.12198,-0.184368 -2.94181,-0.553105 -0.81984,-0.371564 -1.46858,-0.918737 -1.94585,-1.649359 -0.47965,-0.727304 -0.71755,-1.890663 -0.71755,-3.486335 z M 879.58898,16.65243 V 2.8738688 h 8.58635 v 1.890592 h -5.71958 v 4.187855 h 4.68681 v 1.9003402 h -4.68681 v 5.799774 z m 10.94755,0 V 2.8738688 h 5.15757 c 1.05548,0 1.85911,0.132805 2.41235,0.396993 0.54886,0.264192 0.98813,0.66401 1.30587,1.201081 0.32078,0.537566 0.47965,1.140756 0.47965,1.817763 0,0.806984 -0.23166,1.56996 -0.69936,2.288362 -0.46331,0.714376 -1.12096,1.264515 -1.97307,1.6427902 l 4.50962,6.431643 h -3.4924 l -3.42545,-5.631159 h -1.57299 v 5.631159 z m 2.70166,-7.5220332 h 0.65765 c 1.18166,0 1.99844,-0.257833 2.44621,-0.771875 0.44858,-0.514962 0.67386,-1.09929 0.67386,-1.751151 0,-0.565822 -0.18371,-1.013604 -0.54953,-1.343914 -0.36661,-0.334125 -1.109,-0.498713 -2.23501,-0.498713 h -0.99385 z M 903.69333,16.65243 V 2.8738688 h 5.15757 c 1.05468,0 1.85871,0.132805 2.41142,0.396993 0.54952,0.264192 0.98813,0.66401 1.30653,1.201081 0.32079,0.537566 0.47965,1.140756 0.47965,1.817763 0,0.806984 -0.23166,1.56996 -0.69935,2.288362 -0.46412,0.714376 -1.1219,1.264515 -1.97348,1.6427902 l 4.50882,6.431643 h -3.492 l -3.42571,-5.631159 h -1.57312 v 5.631159 z m 2.70059,-7.5220332 h 0.65765 c 1.1818,0 1.99911,-0.257833 2.44715,-0.771875 0.44791,-0.514962 0.67399,-1.09929 0.67399,-1.751151 0,-0.565822 -0.18437,-1.013604 -0.55032,-1.343914 -0.36529,-0.334125 -1.10875,-0.498713 -2.23409,-0.498713 h -0.99477 z m 8.097,9.9433382 -0.0213,-2.04946 c 0.74386,0.292447 1.51654,0.437965 2.31034,0.437965 0.3334,0 0.62948,-0.06357 0.88359,-0.187195 0.25437,-0.12433 0.45774,-0.324235 0.61036,-0.60326 0.15329,-0.280438 0.22953,-0.858692 0.22953,-1.732572 V 2.8737268 h 2.87566 V 14.631438 c 0,1.290228 -0.14558,2.230649 -0.44153,2.821901 -0.29528,0.587719 -0.76311,1.061357 -1.40774,1.420275 -0.64211,0.355315 -1.49369,0.534033 -2.55501,0.534033 -0.78809,0 -1.61762,-0.110901 -2.48527,-0.333417"
       style="fill:#1d3c85;fill-opacity:1;fill-rule:nonzero;stroke:none;stroke-width:2.85761952"
       id="path118"
       inkscape:connector-curvature="0"
       inkscape:export-filename="C:\Users\suitedoalex\sites\ufrrj-logo-5.png"
       inkscape:export-xdpi="90.944809"
       inkscape:export-ydpi="90.944809" />
    <path
       d="m 155.90933,-100.44193 0.0216,-18.41811 15.39939,3.59382 8.81812,-12.64221 19.48497,8.59898 -2.6962,12.57873 15.72437,13.028222 12.12927,-4.492743 10.68803,14.8454 -9.34012,8.963771 5.39111,20.216616 13.47633,3.144404 -0.44816,19.318063 -11.2317,2.245569 -7.63701,20.2157619 8.99569,8.5259466 -10.34358,16.1829185 -12.12928,-5.391186 -15.27492,12.578813 2.24673,13.477573 -19.76716,6.739038 -7.63702,-10.78228 -16.06753,2.246803 0.17765,-17.072322 c 35.74424,-2.784529 53.90374,-23.8705395 58.80102,-48.383131 l -35.19312,-7.926239 c -1.01386,10.969391 -11.30806,20.451812 -22.54222,20.451812 l -0.21174,-1.42416 0.21174,-44.383909 c 11.09183,-0.135413 21.29681,8.378223 22.4999,19.150143 l 34.82707,-5.782139 C 210.43379,-77.0797 187.93391,-99.425638 155.91004,-100.44193"
       style="fill:#fbc707;fill-opacity:1;fill-rule:evenodd;stroke:none;stroke-width:4.14988852"
       id="path120"
       inkscape:connector-curvature="0"
       inkscape:export-filename="C:\Users\suitedoalex\sites\ufrrj-logo-7.png"
       inkscape:export-xdpi="30.118164"
       inkscape:export-ydpi="30.118164" />
    <path
       d="m 156.95509,-136.56508 c 0.16029,0 0.31995,8.2e-4 0.4801,0.003 l 0.0656,-0.12827 2.25297,0.12711 -0.20845,16.32447 12.2762,1.40808 7.52541,-11.67088 21.95996,9.06051 -2.21395,13.36061 13.45516,11.510525 12.89953,-5.067435 12.55633,18.548811 -9.16256,10.62572 5.30314,16.756871 13.57015,2.597418 v 22.860074 l -13.57015,2.787925 -5.30314,16.566364 9.16256,10.6249105 -12.55633,18.5496085 -12.89953,-5.067424 -13.45516,11.510516 2.21395,13.360926 -21.95996,9.060107 -7.52541,-11.671587 -12.90905,1.96079 -0.11153,12.249225 -3.38796,0.0096 -0.0687,-16.099509 18.56863,-3.192513 6.81579,10.750796 15.56207,-6.180475 -2.61026,-12.133004 17.63788,-14.8512725 11.67195,4.9134725 9.06004,-13.5136855 -9.19201,-9.2849496 7.19592,-21.1225269 12.59283,-2.398615 v -16.621552 l -12.59283,-2.304847 -7.19592,-21.122108 9.19201,-9.283737 -9.06004,-13.515325 -11.67195,4.914696 -17.63788,-14.85249 2.61026,-12.13135 -15.56207,-6.18086 -6.81579,10.74953 -18.41096,-2.5763 0.17438,-16.39709 c -21.45407,0.29545 -41.11586,8.00893 -56.543458,20.68725 0.593859,1.14001 0.929198,2.43759 0.929198,3.81172 0,4.56148 -3.699628,8.261169 -8.261167,8.261169 -1.442517,0 -2.797477,-0.370329 -3.977274,-1.020709 -12.192783,14.176063 -20.100406,32.143806 -21.713054,51.88986 3.068851,1.204641 5.241732,4.195884 5.241732,7.692156 0,3.487632 -2.162075,6.470985 -5.218486,7.682706 1.786957,20.909641 10.637816,39.8049645 24.153993,54.292987 1.115119,-0.561127 2.374169,-0.876074 3.706687,-0.876074 4.561992,0 8.261629,3.699686 8.261629,8.261598 0,1.04461 -0.1943,2.042231 -0.54698,2.962209 15.33134,11.702258 34.65862,18.191914 53.97052,18.62727 0.94953,0.02045 2.33638,-0.118056 3.28464,-0.126158 l -0.14622,3.672719 c -0.9765,0.04109 -2.10189,0.201059 -3.08085,0.202083 -19.92611,0.03087 -40.25804,-7.11336 -56.190303,-19.22144 -1.467009,1.331741 -3.414965,2.144622 -5.552556,2.144622 -4.562009,0 -8.261588,-3.699589 -8.261588,-8.261596 0,-1.844566 0.605852,-3.548993 1.628418,-4.924235 C 73.401412,7.9906095 64.247178,-11.561152 62.348592,-33.192086 c -4.215168,-0.375133 -7.519315,-3.914906 -7.519315,-8.227108 0,-4.302981 3.291282,-7.838335 7.494275,-8.225061 1.72345,-20.52159 9.97301,-39.191114 22.66837,-53.920305 -0.915464,-1.3293 -1.452905,-2.94068 -1.452905,-4.67702 0,-4.56189 3.699631,-8.26156 8.261614,-8.26156 1.804376,0 3.474697,0.57855 4.833391,1.56081 16.405308,-13.50999 37.413718,-21.62674 60.320688,-21.62674"
       style="fill:#1d3c85;fill-opacity:1;fill-rule:evenodd;stroke:none;stroke-width:4.14988852"
       id="path122"
       inkscape:connector-curvature="0"
       inkscape:export-filename="C:\Users\suitedoalex\sites\ufrrj-logo-7.png"
       inkscape:export-xdpi="30.118164"
       inkscape:export-ydpi="30.118164" />
    <path
       d="m 136.57249,-48.989994 c 2.91864,1.27532 4.96079,4.186856 4.96079,7.574776 0,3.344443 -1.98903,6.224073 -4.84665,7.523813 3.10577,8.169874 11.00966,13.978478 20.26846,13.978478 11.96954,0 21.67777,-9.708327 21.67777,-21.67781 0,-11.970388 -9.70823,-21.677792 -21.67777,-21.677792 -9.37212,0 -17.35692,5.950157 -20.3826,14.278535 z m -3.67018,15.828059 c -4.39015,-0.193883 -7.89223,-3.814982 -7.89223,-8.253283 0,-4.396016 3.43611,-7.990956 7.76985,-8.246184 3.37633,-10.116618 12.92482,-17.411339 24.17638,-17.411339 11.94008,0 21.96248,8.21684 24.72465,19.305328 l 30.43197,-5.394871 c -5.33844,-25.566662 -28.00763,-44.778969 -55.15784,-44.778969 -14.64909,0 -27.991,5.593693 -38.01258,14.759981 0.81545,1.279817 1.28813,2.800723 1.28813,4.431191 0,4.561608 -3.69963,8.261196 -8.26119,8.261196 -1.07521,0 -2.10107,-0.204149 -3.04228,-0.577559 -4.04531,6.574293 -6.77677,14.043209 -7.8333,22.04003 2.96466,1.254912 5.04292,4.190966 5.04292,7.610888 0,3.40291 -2.0571,6.32409 -4.99565,7.591 1.21389,8.799036 4.45824,16.951047 9.24847,23.964407 1.29269,-0.841199 2.83727,-1.329293 4.49475,-1.329293 4.56195,0 8.26158,3.6996855 8.26158,8.2615965 0,1.906933 -0.64607,3.660703 -1.73049,5.059129 9.6954,7.8922705 22.06454,12.6273475 35.53964,12.6273475 27.03735,0 49.62894,-19.0534035 55.08852,-44.462804 l -30.41702,-5.494389 c -2.83602,10.977705 -12.80782,19.089515 -24.67028,19.089515 -11.1188,0 -20.57427,-7.123719 -24.054,-17.053226 z m 24.05278,-68.670625 c 29.62647,-1.17161 55.40347,22.442575 60.4394,51.476854 l -35.12799,6.107753 c 0.13291,1.836349 -0.0287,3.674745 -0.22835,5.513564 l 34.46357,6.31701 c -4.41838,28.9134495 -29.4003,51.068472 -59.54675,51.068472 -14.71716,0 -28.20056,-5.282758 -38.66284,-14.0511035 -1.03999,0.471892 -2.19279,0.733464 -3.40789,0.733464 -4.56196,0 -8.26162,-3.699686 -8.26162,-8.261269 0,-1.461102 0.38019,-2.83264 1.04578,-4.024569 -5.37119,-7.6274175 -9.015628,-16.5580505 -10.367256,-26.2230915 -4.293455,-0.295444 -7.687217,-3.871 -7.687217,-8.24005 0,-4.352825 3.370089,-7.921726 7.641589,-8.23789 1.164463,-8.607292 4.168964,-16.560612 8.608514,-23.532004 -1.33875,-1.467769 -2.15626,-3.421978 -2.15626,-5.564968 0,-4.561992 3.69963,-8.26158 8.26158,-8.26158 1.6633,0 3.21119,0.49342 4.50763,1.338729 10.70004,-9.583798 24.90432,-15.544231 40.47799,-16.159641"
       style="fill:#1d3c85;fill-opacity:1;fill-rule:evenodd;stroke:none;stroke-width:4.14988852"
       id="path124"
       inkscape:connector-curvature="0"
       inkscape:export-filename="C:\Users\suitedoalex\sites\ufrrj-logo-7.png"
       inkscape:export-xdpi="30.118164"
       inkscape:export-ydpi="30.118164" />
    <path
       d="M 160.13225,-73.030708 V 53.553391 h -6.54274 V -73.04354 c -22.23052,-5.880824 -37.03111,-23.319971 -25.1985,-47.47517 6.61947,13.0269 11.89647,23.559795 23.48585,30.700457 -5.25251,-31.783957 -4.69476,-50.509087 4.88772,-69.735137 9.9307,20.498 10.22493,39.55591 4.43708,70.069249 11.97535,-7.14402 17.31334,-17.803009 24.03743,-31.034569 12.70943,25.946718 -3.62538,39.786194 -25.10684,47.488002"
       style="fill:#008940;fill-opacity:1;fill-rule:evenodd;stroke:none;stroke-width:4.14988852"
       id="path126"
       inkscape:connector-curvature="0"
       inkscape:export-filename="C:\Users\suitedoalex\sites\ufrrj-logo-7.png"
       inkscape:export-xdpi="30.118164"
       inkscape:export-ydpi="30.118164" />
    <path
       d="m 156.8057,-50.219153 c 4.51838,0 8.18149,3.664289 8.18149,8.181467 0,4.518412 -3.66311,8.182797 -8.18149,8.182797 -4.51842,0 -8.18153,-3.664385 -8.18153,-8.182797 0,-4.517178 3.66311,-8.181467 8.18153,-8.181467"
       style="fill:#1d3c85;fill-opacity:1;fill-rule:evenodd;stroke:none;stroke-width:4.14988852"
       id="path128"
       inkscape:connector-curvature="0"
       inkscape:export-filename="C:\Users\suitedoalex\sites\ufrrj-logo-7.png"
       inkscape:export-xdpi="30.118164"
       inkscape:export-ydpi="30.118164" />
    <path
       d="m 271.03967,-16.285154 h 2.55013 v 11.3449475 c 0,1.977516 0.36807,3.332444 1.10717,4.066526 0.73368,0.738614 1.76205,1.106782 3.0842,1.106782 0.83286,0 1.53876,-0.144674 2.11023,-0.429839 0.57642,-0.286205 1.0246,-0.75501 1.33998,-1.402209 0.31411,-0.650382 0.47177,-1.733051 0.47177,-3.253953 V -16.284634 h 2.23514 v 11.3943905 c 0,1.952476 -0.24026,3.358079 -0.72128,4.2204 -0.48101,0.862725 -1.16573,1.547057 -2.03971,2.053015 -0.87892,0.505726 -2.0446,0.759119 -3.49627,0.759119 -1.54582,0 -2.79371,-0.260569 -3.7515,-0.787841 -0.95362,-0.527293 -1.67487,-1.248257 -2.16082,-2.164532 -0.4847,-0.916062 -0.72916,-2.300737 -0.72916,-4.154852 z M 288.42479,1.6929685 V -16.285154 h 2.49989 l 9.04222,13.8822595 V -16.285154 h 2.18573 V 1.6929685 h -2.48782 L 290.60928,-12.192472 V 1.6929685 Z m 18.3674,0 V -16.285154 h 2.55052 V 1.6929685 Z m 12.08242,0 -6.78301,-17.9781225 h 2.55385 l 5.55961,14.7234385 5.37328,-14.7234385 h 2.23179 l -6.52652,17.9781225 z m 11.3645,0 V -16.285154 h 10.07092 v 1.906931 h -7.52169 v 5.7724935 h 6.30741 v 1.881894 h -6.30741 v 6.509969 h 8.04375 v 1.906835 z m 13.48338,0 V -16.285154 h 5.44422 c 2.0148,0 3.40788,0.452389 4.17935,1.356665 0.76693,0.898645 1.15159,1.935867 1.15159,3.100714 0,0.680126 -0.13657,1.35163 -0.40582,2.019759 -0.27389,0.6637288 -0.65858,1.251631 -1.16072,1.7703965 -0.50133,0.518053 -1.18606,0.957112 -2.05298,1.313784 l 5.99577,8.416804 h -3.12651 l -5.12053,-7.603827 h -2.37999 v 7.603827 z m 2.52434,-9.511877 h 0.82579 c 1.88571,0 3.16306,-0.3928994 3.82207,-1.1773656 0.65981,-0.7868009 0.99137,-1.6495459 0.99137,-2.5870589 0,-0.560105 -0.12461,-1.049009 -0.36931,-1.463243 -0.24836,-0.418555 -0.63406,-0.742703 -1.15615,-0.978658 -0.52245,-0.236959 -1.3599,-0.352892 -2.50901,-0.352892 h -1.60479 z m 12.09985,9.172007 v -2.525602 c 1.4504,0.663712 2.51277,1.062456 3.17963,1.198488 0.66812,0.136381 1.28938,0.207213 1.86249,0.207213 1.03163,0 1.85249,-0.281074 2.45008,-0.845287 0.60135,-0.560104 0.90007,-1.235003 0.90007,-2.018544 0,-0.592936 -0.1576,-1.141137 -0.47303,-1.642061 -0.31994,-0.493418 -1.11508,-1.09519 -2.37622,-1.808148 l -1.24332,-0.717047 c -1.66325,-0.936588 -2.77877,-1.7952239 -3.35019,-2.5738253 -0.56811,-0.7755362 -0.8541,-1.6387822 -0.8541,-2.5882932 0,-0.849398 0.22825,-1.645456 0.67972,-2.391131 0.45199,-0.746813 1.0578,-1.327132 1.82015,-1.750393 0.76322,-0.419558 1.72098,-0.63088 2.87713,-0.63088 1.3977,0 2.86547,0.232869 4.4159,0.692434 v 2.333878 c -1.34663,-0.525229 -2.27123,-0.845288 -2.77378,-0.953004 -0.50092,-0.111883 -1.0035,-0.166279 -1.50104,-0.166279 -1.04453,0 -1.8197,0.269808 -2.32186,0.813497 -0.50124,0.542666 -0.75401,1.098468 -0.75401,1.662064 0,0.388791 0.11984,0.783734 0.35648,1.185564 0.23584,0.402119 0.55982,0.74577 0.95741,1.032903 0.40215,0.2862245 0.95403,0.6298755 1.65372,1.0237971 l 1.29893,0.7303957 c 1.67488,0.9488957 2.79369,1.8151117 3.35847,2.5994637 0.55979,0.791949 0.84119,1.703614 0.84119,2.731501 0,1.402227 -0.53406,2.616514 -1.60474,3.644401 -1.07398,1.029218 -2.6493,1.543373 -4.73458,1.543373 -0.6424,0 -1.26491,-0.04109 -1.86582,-0.129242 -0.60587,-0.08199 -1.53877,-0.302622 -2.79868,-0.65858 z m 14.49015,0.339561 V -16.285463 h 2.55055 V 1.6926595 Z m 7.18182,0 V -16.285463 h 5.9746 c 2.30941,0 4.05486,0.336476 5.24547,1.003273 1.18936,0.666797 2.12223,1.642061 2.79825,2.926929 0.67563,1.282283 1.01548,2.8277206 1.01548,4.6312395 0,1.712642 -0.31083,3.279607 -0.92828,4.70182 -0.61756,1.426746 -1.55995,2.566649 -2.8244,3.425286 -1.26449,0.857595 -3.01824,1.289364 -5.26873,1.289364 z m 2.54929,-1.906835 h 3.26759 c 1.69981,0 2.97259,-0.269789 3.81875,-0.809369 0.84569,-0.538576 1.50889,-1.38807 1.98527,-2.557525 0.47764,-1.165773 0.718,-2.462929 0.718,-3.898394 0,-1.2645556 -0.20711,-2.4123496 -0.61798,-3.4535835 -0.41371,-1.040002 -1.08226,-1.877381 -2.00688,-2.504479 -0.91965,-0.625768 -2.61111,-0.940697 -5.06286,-0.940697 h -2.10189 z m 13.9689,1.906835 7.13244,-17.9781225 h 2.51608 l 7.02741,17.9781225 h -2.75636 l -1.96201,-4.979423 h -7.61551 l -1.97409,4.979423 z m 5.09236,-6.874645 h 6.11942 l -3.04809,-7.7482715 z m 14.18803,6.874645 V -16.285463 h 5.97461 c 2.30901,0 4.05487,0.336476 5.24545,1.003273 1.18936,0.666797 2.12185,1.642061 2.79831,2.926929 0.6752,1.282283 1.01547,2.8277206 1.01547,4.6312395 0,1.712642 -0.31084,3.279607 -0.92829,4.70182 -0.61754,1.426746 -1.55996,2.566649 -2.82443,3.425286 -1.26444,0.857595 -3.01864,1.289364 -5.26871,1.289364 z m 2.54928,-1.906835 h 3.26766 c 1.69974,0 2.97256,-0.269789 3.8183,-0.809369 0.84619,-0.538576 1.5093,-1.38807 1.98572,-2.557525 0.47764,-1.165773 0.71747,-2.462929 0.71747,-3.898394 0,-1.2645556 -0.20649,-2.4123496 -0.61754,-3.4535835 -0.41373,-1.040002 -1.08229,-1.877381 -2.00689,-2.504479 -0.91958,-0.625768 -2.61151,-0.940697 -5.06287,-0.940697 h -2.10194 z m 16.08415,1.906835 V -16.285463 h 10.07055 v 1.906835 h -7.52169 v 5.7725901 h 6.30781 v 1.8818944 h -6.30781 v 6.509968 h 8.04414 v 1.906835 z m 21.35282,0 V -16.285463 h 10.20833 v 1.906835 h -7.65904 v 6.0252509 h 6.45556 v 1.8824146 h -6.45556 v 8.163622 z m 13.33857,0 V -16.285463 H 479.213 v 1.906835 h -7.52166 v 5.7725901 h 6.30741 v 1.8818944 h -6.30741 v 6.509968 h 8.04374 v 1.906835 z m 13.48344,0 V -16.285463 h 5.9747 c 2.30881,0 4.05475,0.336476 5.24533,1.003273 1.18943,0.666797 2.1219,1.642061 2.79821,2.926929 0.67534,1.282283 1.01562,2.8277206 1.01562,4.6312395 0,1.712642 -0.31096,3.279607 -0.92843,4.70182 -0.61747,1.426746 -1.55978,2.566649 -2.82444,3.425286 -1.26427,0.857595 -3.0185,1.289364 -5.26868,1.289364 z m 2.54936,-1.906835 h 3.26754 c 1.69984,0 2.9726,-0.269789 3.81865,-0.809369 0.84587,-0.538576 1.50906,-1.38807 1.98533,-2.557525 0.47762,-1.165773 0.71797,-2.462929 0.71797,-3.898394 0,-1.2645556 -0.20717,-2.4123496 -0.61786,-3.4535835 -0.41377,-1.040002 -1.08236,-1.877381 -2.00692,-2.504479 -0.91956,-0.625768 -2.61111,-0.940697 -5.06286,-0.940697 h -2.10185 z m 16.08401,1.906835 V -16.285463 h 10.07054 v 1.906835 h -7.52156 v 5.7725901 h 6.30783 v 1.8818944 h -6.30783 v 6.509968 h 8.04412 v 1.906835 z m 13.48293,0 V -16.285463 h 5.44441 c 2.01504,0 3.40778,0.451367 4.17976,1.356569 0.76678,0.898645 1.15161,1.935963 1.15161,3.10081 0,0.680126 -0.13695,1.35163 -0.40604,2.0197597 -0.27432,0.6637287 -0.65895,1.2516309 -1.16108,1.7702998 -0.50134,0.517011 -1.18556,0.957093 -2.05246,1.313881 l 5.99573,8.416803 h -3.12692 l -5.12071,-7.603827 h -2.37943 v 7.603827 z m 2.52487,-9.511973 h 0.82543 c 1.88579,0 3.16355,-0.3928993 3.82211,-1.1772502 0.65972,-0.7868197 0.9917,-1.6496613 0.9917,-2.5870783 0,-0.560104 -0.12539,-1.049125 -0.36921,-1.463242 -0.24845,-0.418555 -0.63407,-0.742703 -1.15663,-0.978659 -0.52198,-0.236959 -1.35995,-0.352891 -2.50904,-0.352891 h -1.60436 z m 11.09136,9.511973 7.13249,-17.9781225 h 2.51618 l 7.02734,17.9781225 h -2.75596 l -1.96218,-4.979423 h -7.61587 l -1.97357,4.979423 z m 5.09276,-6.874645 h 6.11917 l -3.04782,-7.7482715 z m 14.18779,6.874645 V -16.285463 h 2.54918 v 16.0712875 h 7.98605 v 1.906835 z m 21.13315,0 V -16.285463 h 5.44383 c 2.01523,0 3.40797,0.451367 4.17977,1.356569 0.76735,0.898645 1.1516,1.935963 1.1516,3.10081 0,0.680126 -0.13695,1.35163 -0.40624,2.0197597 -0.27392,0.6637287 -0.65856,1.2516309 -1.16107,1.7702998 -0.50057,0.517011 -1.18557,0.957093 -2.05246,1.313881 l 5.99573,8.416803 h -3.12653 l -5.12091,-7.603827 h -2.37962 v 7.603827 z m 2.52448,-9.511973 h 0.82582 c 1.8856,0 3.16297,-0.3928993 3.82191,-1.1772502 0.65954,-0.7868197 0.99093,-1.6496613 0.99093,-2.5870783 0,-0.560104 -0.12345,-1.049125 -0.3692,-1.463242 -0.24827,-0.418555 -0.63407,-0.742703 -1.15625,-0.978659 -0.52217,-0.236959 -1.35995,-0.352891 -2.50943,-0.352891 h -1.60436 z m 13.05721,-8.4661495 h 2.55052 v 11.3449485 c 0,1.977399 0.36825,3.332328 1.10667,4.066524 0.73456,0.738614 1.76253,1.106783 3.08467,1.106783 0.83294,0 1.53837,-0.144674 2.11033,-0.430861 0.57638,-0.286205 1.02467,-0.75501 1.33987,-1.402209 0.31386,-0.650381 0.47184,-1.732955 0.47184,-3.253857 V -16.285868 h 2.23513 v 11.3943895 c 0,1.952476 -0.23997,3.358079 -0.72125,4.220401 -0.4811,0.862724 -1.16551,1.547077 -2.03992,2.052918 -0.87808,0.505725 -2.04436,0.758077 -3.49592,0.758077 -1.5459,0 -2.79378,-0.260549 -3.75152,-0.787842 -0.95409,-0.527272 -1.67495,-1.248237 -2.16087,-2.164608 -0.48514,-0.916081 -0.72936,-2.30066 -0.72936,-4.154852 z m 17.3855,17.9781225 V -16.285463 h 5.44383 c 2.01522,0 3.40777,0.451367 4.17976,1.356569 0.76735,0.898645 1.1516,1.935963 1.1516,3.10081 0,0.680126 -0.13695,1.35163 -0.40624,2.0197597 -0.27392,0.6637287 -0.65856,1.2516309 -1.16126,1.7702998 -0.50057,0.517011 -1.18555,0.957093 -2.05246,1.313881 l 5.99573,8.416803 h -3.12692 l -5.12052,-7.603827 h -2.37942 v 7.603827 z m 2.52429,-9.511973 h 0.82581 c 1.88579,0 3.16316,-0.3928993 3.82172,-1.1772502 0.6605,-0.7868197 0.99189,-1.6496613 0.99189,-2.5870783 0,-0.560104 -0.12345,-1.049125 -0.3692,-1.463242 -0.24826,-0.418555 -0.63407,-0.742703 -1.15624,-0.978659 -0.52218,-0.236959 -1.35976,-0.352891 -2.50944,-0.352891 h -1.60434 z m 11.09193,9.511973 7.13191,-17.9781225 h 2.51619 l 7.02772,17.9781225 h -2.75634 l -1.96199,-4.979423 h -7.61588 l -1.97375,4.979423 z m 5.09238,-6.874645 h 6.11936 l -3.04821,-7.7482715 z m 14.18798,6.874645 V -16.285463 h 2.54879 v 16.0712875 h 7.98644 v 1.906835 z M 271.18906,30.019016 V 12.040798 h 5.97461 c 2.30898,0 4.05485,0.336475 5.24545,1.003272 1.18892,0.66782 2.12185,1.642563 2.79826,2.926929 0.67521,1.282283 1.01507,2.828125 1.01507,4.631239 0,1.712643 -0.31052,3.279705 -0.92788,4.70182 -0.61754,1.427153 -1.55994,2.566766 -2.82439,3.425789 -1.26449,0.857614 -3.01867,1.288976 -5.26872,1.288976 z m 2.54885,-1.906931 h 3.26804 c 1.69981,0 2.97258,-0.26979 3.81835,-0.809369 0.84569,-0.538579 1.50928,-1.388166 1.98569,-2.557218 0.47765,-1.165656 0.71747,-2.463353 0.71747,-3.898392 0,-1.264865 -0.20702,-2.412774 -0.61745,-3.45399 -0.41413,-1.039905 -1.0823,-1.8774 -2.00686,-2.504382 -0.91969,-0.625768 -2.61154,-0.940697 -5.0629,-0.940697 h -2.10234 z m 23.43194,2.355134 c -1.70102,0 -3.18087,-0.382636 -4.44077,-1.140847 -1.25616,-0.762187 -2.23516,-1.874101 -2.92817,-3.332734 -0.69142,-1.464497 -1.03623,-3.118247 -1.03623,-4.962911 0,-1.783206 0.33187,-3.40455 0.99056,-4.864011 0.65981,-1.463764 1.6338,-2.59167 2.91987,-3.383408 1.28894,-0.791951 2.78542,-1.190695 4.49472,-1.190695 1.70812,0 3.20415,0.399054 4.49348,1.190695 1.28566,0.791951 2.25964,1.919644 2.91987,3.383408 0.65858,1.459461 0.99014,3.080805 0.99014,4.864011 0,1.773677 -0.32714,3.386706 -0.97856,4.838375 -0.65067,1.454948 -1.61267,2.583258 -2.88916,3.391316 -1.27734,0.804258 -2.78665,1.206801 -4.53583,1.206801 z m 0,-1.90776 c 1.81143,0 3.217,-0.676019 4.20759,-2.027148 0.99055,-1.351649 1.48813,-3.192514 1.48813,-5.527742 0,-2.320644 -0.5013,-4.153618 -1.50101,-5.493154 -0.99886,-1.338726 -2.39613,-2.010635 -4.19472,-2.010635 -1.79979,0 -3.19749,0.671909 -4.19595,2.010635 -1.00009,1.339536 -1.50097,3.17251 -1.50097,5.493154 0,2.335228 0.49752,4.176093 1.4877,5.527742 0.99054,1.351534 2.39655,2.027148 4.20923,2.027148 z m 19.84727,1.459557 V 12.040798 h 5.44425 c 2.01477,0 3.40787,0.452389 4.17936,1.356664 0.7669,0.898646 1.15158,1.936272 1.15158,3.10081 0,0.680126 -0.13658,1.351534 -0.40594,2.019778 -0.27389,0.663711 -0.65858,1.251517 -1.16111,1.770282 -0.50093,0.517029 -1.18564,0.958134 -2.05256,1.3139 l 5.99577,8.416784 h -3.12651 l -5.12094,-7.603808 h -2.37956 v 7.603808 z m 2.52438,-9.511973 h 0.8258 c 1.88573,0 3.16306,-0.392899 3.82206,-1.177346 0.65983,-0.78682 0.99137,-1.64914 0.99137,-2.586654 0,-0.560105 -0.12461,-1.049434 -0.3694,-1.463667 -0.24825,-0.418555 -0.63406,-0.741681 -1.15613,-0.97866 -0.52246,-0.236958 -1.35992,-0.352891 -2.50946,-0.352891 h -1.60432 z m 13.19375,9.511973 V 12.040798 h 2.55051 v 17.978218 z m 14.52917,0.4483 c -1.70104,0 -3.18091,-0.382636 -4.44078,-1.140829 -1.25621,-0.762206 -2.23518,-1.87412 -2.92776,-3.332752 -0.69182,-1.464477 -1.03626,-3.118229 -1.03626,-4.962893 0,-1.783225 0.33146,-3.404549 0.99017,-4.864011 0.66022,-1.463782 1.63423,-2.591689 2.91986,-3.383427 1.28933,-0.79195 2.78542,-1.190694 4.49474,-1.190694 1.70809,0 3.20452,0.399052 4.4935,1.190694 1.28604,0.791951 2.26005,1.919645 2.91984,3.383427 0.65858,1.459462 0.99066,3.080786 0.99066,4.864011 0,1.773659 -0.32713,3.386688 -0.97896,4.838356 -0.6503,1.454947 -1.61267,2.583258 -2.88915,3.391317 -1.27737,0.804257 -2.78668,1.206801 -4.53585,1.206801 z m 0,-1.907761 c 1.81141,0 3.21742,-0.676018 4.20796,-2.027147 0.99014,-1.35165 1.48775,-3.192514 1.48775,-5.527723 0,-2.320663 -0.50093,-4.153618 -1.50102,-5.493174 -0.99845,-1.338705 -2.39614,-2.010634 -4.1947,-2.010634 -1.79982,0 -3.19709,0.671929 -4.19597,2.010634 -1.00009,1.339556 -1.50101,3.172511 -1.50101,5.493174 0,2.335209 0.49755,4.176073 1.48814,5.527723 0.99015,1.351533 2.39615,2.027147 4.20885,2.027147 z m 19.84726,1.459578 V 12.040894 h 5.97459 c 2.30941,0 4.05486,0.336475 5.24546,1.003273 1.18936,0.667819 2.12224,1.642581 2.79869,2.926929 0.6752,1.282302 1.01507,2.828125 1.01507,4.631239 0,1.712642 -0.31053,3.279723 -0.92829,4.70184 -0.61754,1.427132 -1.55952,2.566745 -2.82438,3.425788 -1.26449,0.857594 -3.01825,1.288957 -5.26874,1.288957 z m 2.54927,-1.906933 h 3.26803 c 1.69978,0 2.97256,-0.269809 3.81829,-0.809388 0.84571,-0.538578 1.50931,-1.388167 1.98576,-2.557217 0.47761,-1.165656 0.71747,-2.463333 0.71747,-3.898394 0,-1.264844 -0.2071,-2.412754 -0.61757,-3.453989 -0.41411,-1.039885 -1.08227,-1.877379 -2.00688,-2.504381 -0.92007,-0.625748 -2.6115,-0.940697 -5.06327,-0.940697 h -2.1019 z m 16.08414,1.906933 V 12.040894 h 10.07053 v 1.906931 h -7.52127 v 5.772494 h 6.30741 v 1.882009 h -6.30741 V 28.1122 h 8.04373 v 1.906933 z m 16.79587,3.337362 v -2.259728 c 0.97062,0.320061 1.83752,0.478045 2.59987,0.478045 0.51877,0 0.96193,-0.0924 1.33499,-0.286205 0.37311,-0.191935 0.67645,-0.505744 0.90798,-0.945827 0.22824,-0.443169 0.34489,-1.277693 0.34489,-2.508181 v -15.79359 h 2.54928 v 15.705685 c 0,2.065322 -0.48471,3.558541 -1.45082,4.48311 -0.96687,0.924281 -2.33473,1.384386 -4.10051,1.384386 -0.56482,0 -1.29395,-0.0924 -2.1857,-0.257502 z m 10.17879,-3.337362 7.13246,-17.978239 h 2.51605 l 7.02741,17.978239 h -2.75592 l -1.96247,-4.979521 h -7.61549 l -1.97411,4.979521 z m 5.09237,-6.874357 h 6.11941 l -3.04769,-7.748656 z m 14.18802,6.874357 V 12.040894 h 2.49992 l 9.04257,13.882258 V 12.040894 h 2.18534 v 17.978239 h -2.48784 l -9.05551,-13.885539 v 13.885539 z m 18.38029,0 V 12.040894 h 10.07095 v 1.906931 h -7.52166 v 5.772494 h 6.30737 v 1.882009 h -6.30737 V 28.1122 h 8.04371 v 1.906933 z m 13.47054,0 V 12.040894 h 2.55008 v 17.978239 z m 7.18137,0 V 12.040894 h 5.44424 c 2.01518,0 3.40789,0.452408 4.1798,1.356685 0.76697,0.898625 1.1516,1.936272 1.1516,3.100789 0,0.680147 -0.13695,1.351555 -0.40585,2.019779 -0.27431,0.66371 -0.65896,1.251516 -1.16126,1.770282 -0.50075,0.517028 -1.18553,0.958134 -2.05244,1.313899 l 5.9957,8.416805 h -3.12691 l -5.12055,-7.603828 h -2.37953 v 7.603828 z m 2.52479,-9.511995 h 0.82581 c 1.88527,0 3.16308,-0.392899 3.82164,-1.177344 0.66023,-0.786821 0.99189,-1.649141 0.99189,-2.586655 0,-0.560104 -0.12481,-1.049434 -0.36941,-1.463666 -0.24836,-0.418537 -0.63408,-0.741681 -1.15657,-0.978641 -0.52207,-0.236977 -1.35952,-0.352891 -2.50905,-0.352891 h -1.60433 z m 20.55402,9.960178 c -1.70061,0 -3.18054,-0.382636 -4.44036,-1.140829 -1.25656,-0.762206 -2.23514,-1.87412 -2.92823,-3.332752 -0.69175,-1.464477 -1.03626,-3.118229 -1.03626,-4.962893 0,-1.783225 0.33159,-3.404549 0.99054,-4.864011 0.65991,-1.463782 1.63386,-2.591689 2.91955,-3.383427 1.28933,-0.79195 2.78586,-1.190694 4.49476,-1.190694 1.70813,0 3.20445,0.399052 4.49379,1.190694 1.28568,0.791951 2.25963,1.919645 2.91955,3.383427 0.65894,1.459462 0.99054,3.080786 0.99054,4.864011 0,1.773659 -0.32716,3.386688 -0.97858,4.838356 -0.65066,1.454947 -1.61304,2.583258 -2.88926,3.391317 -1.27758,0.804257 -2.78663,1.206801 -4.53604,1.206801 z m 0,-1.907761 c 1.81171,0 3.21737,-0.676018 4.20791,-2.027147 0.99055,-1.35165 1.48822,-3.192514 1.48822,-5.527723 0,-2.320663 -0.50134,-4.153618 -1.50114,-5.493174 -0.99884,-1.338705 -2.39601,-2.010634 -4.19499,-2.010634 -1.79976,0 -3.19713,0.671929 -4.19597,2.010634 -0.99961,1.339556 -1.50095,3.172511 -1.50095,5.493174 0,2.335209 0.49748,4.176073 1.48803,5.527723 0.99054,1.351533 2.39621,2.027147 4.20889,2.027147"
       style="fill:#1d3c85;fill-opacity:1;fill-rule:nonzero;stroke:none;stroke-width:4.14988852"
       id="path130"
       inkscape:connector-curvature="0"
       inkscape:export-filename="C:\Users\suitedoalex\sites\ufrrj-logo-7.png"
       inkscape:export-xdpi="30.118164"
       inkscape:export-ydpi="30.118164" />
    <path
       d="m 266.65074,-105.5027 h 13.77969 v 40.548499 c 0,7.326648 1.25287,12.178661 3.74322,14.575212 2.48993,2.380771 5.71439,3.571465 9.68582,3.571465 3.91254,0 7.02871,-1.176535 9.33434,-3.525805 2.30776,-2.365378 3.4689,-6.899184 3.4689,-13.64314 V -105.5027 h 11.99194 v 40.640625 c 0,7.661585 -0.9611,13.154738 -2.88708,16.467583 -1.92306,3.325345 -4.70637,5.950984 -8.34126,7.859035 -3.65275,1.908165 -8.24873,2.853896 -13.82659,2.853896 -5.49944,0 -10.20502,-0.886337 -14.14697,-2.655075 -3.94199,-1.785675 -7.05817,-4.411314 -9.34846,-7.921322 -2.30777,-3.495039 -3.45355,-9.080303 -3.45355,-16.741888 z m 68.03036,66.17281 v -66.17281 h 41.28019 v 9.07909 h -27.49924 v 20.115341 h 22.53391 v 9.126367 h -22.53392 v 27.852012 z m 52.63223,0 v -66.17281 h 24.79475 c 5.0724,0 8.93805,0.64012 11.5952,1.90683 2.64469,1.26568 4.75121,3.18912 6.2796,5.768699 1.54335,2.580069 2.30652,5.479611 2.30652,8.729783 0,3.877255 -1.11385,7.539083 -3.36059,10.988468 -2.23138,3.433682 -5.39236,6.074602 -9.48829,7.889699 l 21.67983,30.889331 H 424.3291 l -16.46762,-27.043958 h -7.56276 v 27.043958 z m 12.98539,-36.123143 h 3.16223 c 5.68408,0 9.60947,-1.23747 11.76454,-3.708712 2.15377,-2.47289 3.23858,-5.281934 3.23858,-8.4085 0,-2.716508 -0.88605,-4.869015 -2.64433,-6.455985 -1.75666,-1.602277 -5.33138,-2.39738 -10.73785,-2.39738 h -4.78317 z m 50.26429,36.123143 v -66.17281 h 24.79475 c 5.07157,0 8.93689,0.64012 11.59449,1.90683 2.64427,1.26568 4.75111,3.18912 6.27908,5.768699 1.54455,2.580069 2.30825,5.479611 2.30825,8.729783 0,3.877255 -1.11556,7.539083 -3.36226,10.988468 -2.22897,3.433682 -5.39251,6.074602 -9.48701,7.889699 l 21.67886,30.889331 h -16.79 l -16.4688,-27.043958 h -7.56276 v 27.043958 z m 12.9846,-36.123143 h 3.16304 c 5.68286,0 9.61074,-1.23747 11.76326,-3.708712 2.1543,-2.47289 3.23975,-5.281934 3.23975,-8.4085 0,-2.716508 -0.88676,-4.869015 -2.64422,-6.455985 -1.7575,-1.602277 -5.33261,-2.39738 -10.73907,-2.39738 h -4.78276 z m 38.92768,47.752773 -0.0907,-9.843956 c 3.57501,1.404794 7.28755,2.106158 11.10717,2.106158 1.60222,0 3.02312,-0.306728 4.24649,-0.900688 1.22126,-0.596022 2.19985,-1.557436 2.93268,-2.899537 0.73281,-1.343742 1.10106,-4.120787 1.10106,-8.318001 v -57.946926 h 13.82571 v 56.465821 c 0,6.195754 -0.70369,10.714166 -2.12344,13.55265 -1.4209,2.823207 -3.66645,5.096976 -6.76847,6.822853 -3.08583,1.70813 -7.17935,2.562136 -12.28252,2.562136 -3.78875,0 -7.77773,-0.532423 -11.94784,-1.60103"
       style="fill:#1d3c85;fill-opacity:1;fill-rule:nonzero;stroke:none;stroke-width:4.14988852"
       id="path132"
       inkscape:connector-curvature="0"
       inkscape:export-filename="C:\Users\suitedoalex\sites\ufrrj-logo-7.png"
       inkscape:export-xdpi="30.118164"
       inkscape:export-ydpi="30.118164" />
    <path
       d="m 831.31203,-363.20985 0.0133,-9.15408 7.65412,1.78626 4.38215,-6.28275 9.68418,4.2739 -1.33995,6.25102 7.81448,6.47537 6.02898,-2.2327 5.31148,7.37786 -4.64222,4.45529 2.6796,10.04767 6.69796,1.56255 -0.22252,9.6013 -5.58208,1.11624 -3.79576,10.04683 4.47045,4.23722 -5.14028,8.0428 -6.02844,-2.67879 -7.59155,6.25194 1.11619,6.69824 -9.82392,3.34858 -3.79605,-5.35835 -7.98505,1.11617 0.0879,-8.48421 c 17.76497,-1.38424 26.79048,-11.86374 29.22461,-24.04663 l -17.4912,-3.9392 c -0.50379,5.45152 -5.62065,10.16423 -11.20415,10.16423 l -0.10467,-0.70781 0.10467,-22.05826 c 5.5129,-0.0707 10.58462,4.16298 11.18327,9.5173 l 17.30861,-2.87418 c -1.91316,-12.94267 -13.09503,-24.04825 -29.01111,-24.55381"
       style="fill:#fbc707;fill-opacity:1;fill-rule:evenodd;stroke:none;stroke-width:2.85761952"
       id="path134"
       inkscape:connector-curvature="0"
       inkscape:export-filename="C:\Users\suitedoalex\sites\ufrrj-logo-6.png"
       inkscape:export-xdpi="27.043652"
       inkscape:export-ydpi="27.043652" />
    <path
       d="m 831.83125,-381.1634 c 0.08,0 0.1595,8.3e-4 0.23898,0.001 l 0.0332,-0.0636 1.1193,0.0636 -0.10348,8.11335 6.10101,0.70004 3.74007,-5.80069 10.91438,4.50304 -1.10104,6.64052 6.68768,5.72067 6.41165,-2.51844 6.24049,9.21901 -4.5542,5.28057 2.63585,8.32796 6.74428,1.29108 v 11.36155 l -6.74428,1.38602 -2.63585,8.23309 4.5542,5.28057 -6.24049,9.21922 -6.41165,-2.51836 -6.68768,5.72037 1.10104,6.64053 -10.91438,4.50304 -3.74007,-5.80068 -6.41534,0.97446 -0.0558,6.08756 -1.68316,0.005 -0.0339,-8.00132 9.22868,-1.58685 3.38654,5.34295 7.73529,-3.07168 -1.2979,-6.02991 8.76631,-7.38118 5.80067,2.44242 4.50305,-6.71687 -4.56876,-4.61388 3.57716,-10.49808 6.25846,-1.19246 v -8.26135 l -6.25846,-1.14478 -3.57716,-10.49807 4.56876,-4.61472 -4.50305,-6.71597 -5.80067,2.44235 -8.76631,-7.38173 1.2979,-6.02936 -7.73529,-3.07161 -3.38654,5.34231 -9.15011,-1.28082 0.0858,-8.14876 c -10.66233,0.14623 -20.43397,3.97948 -28.10153,10.28086 0.29463,0.56724 0.46148,1.21188 0.46148,1.89462 0,2.26752 -1.83859,4.10605 -4.10581,4.10605 -0.71697,0 -1.39024,-0.18366 -1.97664,-0.50719 -6.05983,7.04487 -9.99022,15.97552 -10.79207,25.78803 1.52626,0.59973 2.60587,2.08606 2.60587,3.82434 0,1.73257 -1.07475,3.21572 -2.59358,3.81778 0.88758,10.39261 5.28687,19.78326 12.00458,26.9836 0.55409,-0.27832 1.17934,-0.43585 1.84201,-0.43585 2.26724,0 4.10612,1.83889 4.10612,4.10613 0,0.5192 -0.0967,1.01502 -0.27232,1.47254 7.62012,5.81525 17.22546,9.04177 26.82447,9.2573 0.47123,0.0141 1.16077,-0.0564 1.63197,-0.0636 l -0.0728,1.82601 c -0.48522,0.0141 -1.04473,0.0996 -1.5308,0.10029 -9.90365,0.0141 -20.00876,-3.53486 -27.92667,-9.55354 -0.72926,0.66189 -1.69799,1.06616 -2.75989,1.06616 -2.26723,0 -4.10611,-1.83889 -4.10611,-4.10613 0,-0.91704 0.30148,-1.76344 0.80927,-2.44695 -6.938,-7.46869 -11.48791,-17.1857 -12.43064,-27.93666 -2.09492,-0.18649 -3.73776,-1.94577 -3.73776,-4.08811 0,-2.13925 1.63627,-3.8964 3.72463,-4.08897 0.85613,-10.19855 4.95739,-19.47753 11.26673,-26.79761 -0.4552,-0.66118 -0.72242,-1.4623 -0.72242,-2.32502 0,-2.26724 1.83861,-4.10577 4.10612,-4.10577 0.89673,0 1.72686,0.28751 2.4024,0.77584 8.15307,-6.71427 18.59425,-10.7492 29.97873,-10.7492"
       style="fill:#1d3c85;fill-opacity:1;fill-rule:evenodd;stroke:none;stroke-width:2.85761952"
       id="path136"
       inkscape:connector-curvature="0"
       inkscape:export-filename="C:\Users\suitedoalex\sites\ufrrj-logo-6.png"
       inkscape:export-xdpi="27.043652"
       inkscape:export-ydpi="27.043652" />
    <path
       d="m 821.70156,-337.63791 c 1.45081,0.63364 2.46497,2.08125 2.46497,3.76522 0,1.66144 -0.98816,3.09281 -2.40811,3.73839 1.54397,4.0607 5.47177,6.94744 10.07283,6.94744 5.94955,0 10.77409,-4.82452 10.77409,-10.77413 0,-5.94896 -4.82454,-10.77348 -10.77409,-10.77348 -4.65707,0 -8.6263,2.95731 -10.12969,7.09656 z m -1.82403,7.86647 c -2.18235,-0.0968 -3.92236,-1.89539 -3.92236,-4.10125 0,-2.18543 1.70772,-3.97233 3.8615,-4.09863 1.67829,-5.02798 6.42364,-8.65375 12.01515,-8.65375 5.9344,0 10.9161,4.08409 12.28832,9.59473 l 15.12483,-2.68097 c -2.65273,-12.70704 -13.91946,-22.25493 -27.41372,-22.25493 -7.2798,0 -13.91089,2.77993 -18.89172,7.33469 0.4049,0.63646 0.63985,1.39252 0.63985,2.2026 0,2.26725 -1.8386,4.10614 -4.10612,4.10614 -0.53382,0 -1.04391,-0.10242 -1.51139,-0.2875 -2.01063,3.26855 -3.36799,6.98001 -3.89294,10.95496 1.47253,0.62375 2.50613,2.08259 2.50613,3.78287 0,1.69062 -1.02217,3.14283 -2.4827,3.77235 0.6027,4.37245 2.21551,8.42432 4.59619,11.91058 0.64295,-0.41748 1.41025,-0.66118 2.2341,-0.66118 2.26723,0 4.10583,1.83889 4.10583,4.10612 0,0.94791 -0.32063,1.81947 -0.86014,2.51441 4.8188,3.92211 10.96639,6.27532 17.66295,6.27532 13.43822,0 24.66609,-9.46927 27.37912,-22.09769 l -15.1171,-2.73071 c -1.40938,5.45577 -6.36506,9.48786 -12.26145,9.48786 -5.52609,0 -10.22485,-3.54143 -11.9543,-8.47602 z m 11.95372,-34.12913 c 14.72473,-0.58277 27.53602,11.15333 30.03929,25.58404 l -17.45891,3.03508 c 0.0664,0.91302 -0.0149,1.82688 -0.1141,2.74046 l 17.12885,3.13964 c -2.19608,14.37009 -14.61214,25.3817 -29.59521,25.3817 -7.31379,0 -14.01548,-2.62615 -19.21494,-6.98404 -0.51694,0.23382 -1.09045,0.36521 -1.69369,0.36521 -2.26751,0 -4.10611,-1.83889 -4.10611,-4.10613 0,-0.72674 0.1886,-1.40855 0.52004,-2.00008 -2.66986,-3.79086 -4.48131,-8.22991 -5.15285,-13.03332 -2.1335,-0.14622 -3.82093,-1.92372 -3.82093,-4.09468 0,-2.16346 1.67543,-3.93744 3.79836,-4.09468 0.57924,-4.27785 2.07205,-8.23076 4.27871,-11.69534 -0.66585,-0.72984 -1.07246,-1.70028 -1.07246,-2.76624 0,-2.26716 1.83857,-4.10605 4.10582,-4.10605 0.82727,0 1.59685,0.24513 2.24152,0.66614 5.31717,-4.76314 12.37635,-7.72618 20.1165,-8.03142"
       style="fill:#1d3c85;fill-opacity:1;fill-rule:evenodd;stroke:none;stroke-width:2.85761952"
       id="path138"
       inkscape:connector-curvature="0"
       inkscape:export-filename="C:\Users\suitedoalex\sites\ufrrj-logo-6.png"
       inkscape:export-xdpi="27.043652"
       inkscape:export-ydpi="27.043652" />
    <path
       d="m 833.41067,-349.58641 v 62.91275 h -3.25143 v -62.91933 c -11.04897,-2.92276 -18.40479,-11.58908 -12.52409,-23.59482 3.29057,6.47481 5.91241,11.70911 11.67283,15.25796 -2.61075,-15.79664 -2.33383,-25.10303 2.42925,-34.65806 4.9354,10.1869 5.08114,19.65935 2.20552,34.82414 5.95155,-3.55034 8.60427,-8.84807 11.94653,-15.42404 6.31651,12.89502 -1.80228,19.77387 -12.47861,23.6014"
       style="fill:#008940;fill-opacity:1;fill-rule:evenodd;stroke:none;stroke-width:2.85761952"
       id="path140"
       inkscape:connector-curvature="0"
       inkscape:export-filename="C:\Users\suitedoalex\sites\ufrrj-logo-6.png"
       inkscape:export-xdpi="27.043652"
       inkscape:export-ydpi="27.043652" />
    <path
       d="m 831.75752,-338.24851 c 2.24524,0 4.06612,1.82086 4.06612,4.06635 0,2.24556 -1.82088,4.06643 -4.06612,4.06643 -2.24553,0 -4.06641,-1.82087 -4.06641,-4.06643 0,-2.24549 1.82088,-4.06635 4.06641,-4.06635"
       style="fill:#1d3c85;fill-opacity:1;fill-rule:evenodd;stroke:none;stroke-width:2.85761952"
       id="path142"
       inkscape:connector-curvature="0"
       inkscape:export-filename="C:\Users\suitedoalex\sites\ufrrj-logo-6.png"
       inkscape:export-xdpi="27.043652"
       inkscape:export-ydpi="27.043652" />
    <path
       d="m 1092.5648,-353.50796 h 2.3581 v 10.49094 c 0,1.828 0.341,3.08192 1.0239,3.7609 0.6786,0.68239 1.6297,1.02385 2.8531,1.02385 0.7701,0 1.4222,-0.13421 1.9511,-0.3984 0.5331,-0.2649 0.9471,-0.69792 1.2385,-1.29595 0.2909,-0.60255 0.4366,-1.60309 0.4366,-3.01022 v -10.57091 h 2.0673 v 10.53608 c 0,1.8066 -0.2226,3.10566 -0.6676,3.90352 -0.445,0.79724 -1.0777,1.42996 -1.8866,1.89802 -0.8127,0.46763 -1.8901,0.70145 -3.2322,0.70145 -1.4306,0 -2.584,-0.24159 -3.4691,-0.72837 -0.8822,-0.48741 -1.5498,-1.15425 -1.9985,-2.0015 -0.448,-0.84731 -0.6749,-2.12807 -0.6749,-3.84207 z m 16.0767,16.62511 v -16.62511 h 2.3121 l 8.3619,12.83673 v -12.83673 h 2.0209 v 16.62511 h -2.3004 l -8.3733,-12.84075 v 12.84075 z m 16.9856,0 v -16.62511 h 2.3582 v 16.62511 z m 11.1723,0 -6.2723,-16.62511 h 2.3614 l 5.1411,13.61517 4.9696,-13.61517 h 2.0623 l -6.0346,16.62511 z m 10.5091,0 v -16.62511 h 9.313 v 1.76436 h -6.9549 v 5.33715 h 5.8316 v 1.74 h -5.8316 v 6.01925 h 7.4384 v 1.76435 z m 12.4688,0 v -16.62511 h 5.0336 c 1.864,0 3.1519,0.41819 3.8655,1.25393 0.7089,0.83184 1.0662,1.79091 1.0662,2.86851 0,0.62869 -0.1275,1.24961 -0.3758,1.86687 -0.2537,0.61314 -0.6103,1.15763 -1.0742,1.63713 -0.4641,0.47893 -1.096,0.88533 -1.898,1.21507 l 5.544,7.7836 h -2.8911 l -4.7348,-7.03179 h -2.2008 v 7.03179 z m 2.3346,-8.79523 h 0.7632 c 1.7449,0 2.9256,-0.3645 3.5349,-1.08961 0.6102,-0.72808 0.9169,-1.52538 0.9169,-2.39207 0,-0.51777 -0.1155,-0.97016 -0.3419,-1.35337 -0.2302,-0.3871 -0.5869,-0.68591 -1.0701,-0.90504 -0.4824,-0.21827 -1.2571,-0.32565 -2.3189,-0.32565 h -1.4843 z m 11.1883,8.48089 v -2.33527 c 1.3415,0.61387 2.323,0.98189 2.9402,1.1082 0.6174,0.12646 1.1926,0.19214 1.7215,0.19214 0.9551,0 1.714,-0.26067 2.2664,-0.78248 0.5559,-0.51778 0.8318,-1.14216 0.8318,-1.86713 0,-0.54817 -0.1455,-1.05472 -0.4373,-1.51798 -0.2945,-0.45703 -1.0313,-1.01275 -2.1969,-1.67196 l -1.1502,-0.66331 c -1.5374,-0.86667 -2.5687,-1.65967 -3.0976,-2.38061 -0.5256,-0.71671 -0.7905,-1.51486 -0.7905,-2.39269 0,-0.78587 0.2112,-1.52229 0.6294,-2.21236 0.4183,-0.69015 0.9779,-1.22708 1.6835,-1.61771 0.7057,-0.38711 1.5908,-0.58278 2.6607,-0.58278 1.2922,0 2.6489,0.21475 4.0827,0.6407 v 2.1586 c -1.2459,-0.48671 -2.1003,-0.78241 -2.5644,-0.88215 -0.4641,-0.10387 -0.9276,-0.15399 -1.3885,-0.15399 -0.9657,0 -1.6832,0.24936 -2.1467,0.75153 -0.4641,0.50225 -0.6979,1.01678 -0.6979,1.5374 0,0.36026 0.1116,0.72497 0.3306,1.09675 0.2183,0.37156 0.5178,0.69014 0.8855,0.95447 0.3717,0.26491 0.8819,0.58349 1.5291,0.94757 l 1.2004,0.67459 c 1.549,0.87819 2.5843,1.67946 3.1058,2.40443 0.5179,0.7321 0.7784,1.5754 0.7784,2.52641 0,1.29511 -0.4952,2.4187 -1.484,3.36972 -0.9929,0.95102 -2.4501,1.42655 -4.378,1.42655 -0.5948,0 -1.1697,-0.0353 -1.7255,-0.11941 -0.5595,-0.0763 -1.4222,-0.27973 -2.5879,-0.60962 z m 13.3994,0.31434 v -16.62511 h 2.3581 v 16.62511 z m 6.6409,0 v -16.62511 h 5.5252 c 2.1353,0 3.7494,0.31153 4.8497,0.92849 1.1006,0.61739 1.9634,1.51797 2.5881,2.70703 0.6251,1.18421 0.9396,2.61465 0.9396,4.28267 0,1.58288 -0.2874,3.03198 -0.8587,4.34728 -0.5708,1.31883 -1.4421,2.37355 -2.6107,3.16739 -1.1697,0.79385 -2.7913,1.19225 -4.8732,1.19225 z m 2.3579,-1.76435 h 3.0215 c 1.5723,0 2.749,-0.24865 3.5309,-0.74666 0.7824,-0.49872 1.3956,-1.28478 1.8364,-2.36614 0.4415,-1.07731 0.6632,-2.27691 0.6632,-3.60373 0,-1.16993 -0.1914,-2.23178 -0.5714,-3.19396 -0.3829,-0.9624 -1.0005,-1.73682 -1.8557,-2.31606 -0.8505,-0.57923 -2.4157,-0.86985 -4.6811,-0.86985 h -1.9444 z m 12.9169,1.76435 6.595,-16.62511 h 2.3274 l 6.499,16.62511 h -2.5501 l -1.8137,-4.60511 h -7.0432 l -1.8248,4.60511 z m 4.7086,-6.35711 h 5.6588 l -2.8178,-7.16545 z m 13.1201,6.35711 v -16.62511 h 5.5252 c 2.1352,0 3.7497,0.31153 4.8497,0.92849 1.1011,0.61739 1.9635,1.51797 2.5881,2.70703 0.6251,1.18421 0.9396,2.61465 0.9396,4.28267 0,1.58288 -0.2875,3.03198 -0.8594,4.34728 -0.5714,1.31883 -1.4411,2.37355 -2.6106,3.16739 -1.1691,0.79385 -2.7916,1.19225 -4.8733,1.19225 z m 2.3582,-1.76435 h 3.0213 c 1.5713,0 2.7484,-0.24865 3.5308,-0.74666 0.7828,-0.49872 1.3957,-1.28478 1.8364,-2.36614 0.4414,-1.07731 0.6632,-2.27691 0.6632,-3.60373 0,-1.16993 -0.1914,-2.23178 -0.5707,-3.19396 -0.3835,-0.9624 -1.0005,-1.73682 -1.8561,-2.31606 -0.8512,-0.57923 -2.4155,-0.86985 -4.681,-0.86985 h -1.9441 z m 14.8721,1.76435 v -16.62511 h 9.313 v 1.76436 h -6.9549 v 5.33715 h 5.8312 v 1.74 h -5.8312 v 6.01925 h 7.4384 v 1.76435 z m 19.7462,0 v -16.62511 h 9.4392 v 1.76436 h -7.0812 v 5.57062 h 5.969 v 1.74055 h -5.969 v 7.54958 z m 12.3343,0 v -16.62511 h 9.3129 v 1.76436 h -6.9548 v 5.33715 h 5.8313 v 1.74 h -5.8313 v 6.01925 h 7.4378 v 1.76435 z m 12.4689,0 v -16.62511 h 5.5244 c 2.1361,0 3.7497,0.31153 4.8505,0.92849 1.1002,0.61739 1.9627,1.51797 2.5882,2.70703 0.6244,1.18421 0.9387,2.61465 0.9387,4.28267 0,1.58288 -0.2876,3.03198 -0.8587,4.34728 -0.5708,1.31883 -1.4417,2.37355 -2.6108,3.16739 -1.1696,0.79385 -2.7914,1.19225 -4.8731,1.19225 z m 2.3581,-1.76435 h 3.0206 c 1.5722,0 2.7492,-0.24865 3.5316,-0.74666 0.7817,-0.49872 1.3948,-1.28478 1.8364,-2.36614 0.4407,-1.07731 0.6625,-2.27691 0.6625,-3.60373 0,-1.16993 -0.1914,-2.23178 -0.5714,-3.19396 -0.3828,-0.9624 -1.0002,-1.73682 -1.8557,-2.31606 -0.8505,-0.57923 -2.4147,-0.86985 -4.6812,-0.86985 h -1.9431 z m 14.8722,1.76435 v -16.62511 h 9.3131 v 1.76436 h -6.9552 v 5.33715 h 5.8314 v 1.74 h -5.8314 v 6.01925 h 7.4377 v 1.76435 z m 12.4682,0 v -16.62511 h 5.0342 c 1.8637,0 3.1517,0.41819 3.8646,1.25393 0.7095,0.83184 1.0659,1.79091 1.0659,2.86851 0,0.62869 -0.1262,1.24961 -0.3758,1.86687 -0.2529,0.61314 -0.6095,1.15763 -1.0734,1.63713 -0.4641,0.47893 -1.0966,0.88533 -1.8976,1.21507 l 5.5437,7.7836 h -2.891 l -4.7346,-7.03179 h -2.2008 v 7.03179 z m 2.3352,-8.79523 h 0.763 c 1.7448,0 2.925,-0.3645 3.5347,-1.08961 0.6104,-0.72808 0.9163,-1.52538 0.9163,-2.39207 0,-0.51777 -0.1156,-0.97016 -0.3413,-1.35337 -0.2301,-0.3871 -0.5863,-0.68591 -1.0702,-0.90504 -0.4824,-0.21827 -1.257,-0.32565 -2.3188,-0.32565 h -1.484 z m 10.2556,8.79523 6.5945,-16.62511 h 2.3282 l 6.4979,16.62511 h -2.549 l -1.8137,-4.60511 h -7.0432 l -1.8251,4.60511 z m 4.7089,-6.35711 h 5.6588 l -2.8181,-7.16545 z m 13.1201,6.35711 v -16.62511 h 2.3579 v 14.86076 h 7.3843 v 1.76435 z m 19.5427,0 v -16.62511 h 5.0337 c 1.8638,0 3.152,0.41819 3.8646,1.25393 0.7096,0.83184 1.066,1.79091 1.066,2.86851 0,0.62869 -0.1262,1.24961 -0.3758,1.86687 -0.2529,0.61314 -0.6089,1.15763 -1.0734,1.63713 -0.464,0.47893 -1.0968,0.88533 -1.8978,1.21507 l 5.5439,7.7836 h -2.8911 l -4.7345,-7.03179 h -2.201 v 7.03179 z m 2.3347,-8.79523 h 0.763 c 1.7449,0 2.9251,-0.3645 3.5352,-1.08961 0.6096,-0.72808 0.9161,-1.52538 0.9161,-2.39207 0,-0.51777 -0.1155,-0.97016 -0.3412,-1.35337 -0.2303,-0.3871 -0.5863,-0.68591 -1.07,-0.90504 -0.4831,-0.21827 -1.2572,-0.32565 -2.3191,-0.32565 h -1.484 z m 12.0735,-7.82988 h 2.3581 v 10.49094 c 0,1.828 0.3411,3.08192 1.0239,3.7609 0.6787,0.68239 1.6288,1.02385 2.8521,1.02385 0.771,0 1.4223,-0.13421 1.9512,-0.3984 0.5333,-0.2649 0.9479,-0.69792 1.2388,-1.29595 0.2918,-0.60255 0.4373,-1.60309 0.4373,-3.01022 v -10.57091 h 2.0663 v 10.53608 c 0,1.8066 -0.2225,3.10566 -0.6675,3.90352 -0.4443,0.79724 -1.0767,1.42996 -1.8858,1.89802 -0.8133,0.46763 -1.8906,0.70145 -3.2322,0.70145 -1.4306,0 -2.5848,-0.24159 -3.4701,-0.72837 -0.8813,-0.48741 -1.5488,-1.15425 -1.9975,-2.0015 -0.4486,-0.84731 -0.6753,-2.12807 -0.6753,-3.84207 z m 16.0769,16.62511 v -16.62511 h 5.0334 c 1.864,0 3.1519,0.41819 3.8647,1.25393 0.7095,0.83184 1.0661,1.79091 1.0661,2.86851 0,0.62869 -0.1262,1.24961 -0.3751,1.86687 -0.2536,0.61314 -0.6096,1.15763 -1.0741,1.63713 -0.4641,0.47893 -1.096,0.88533 -1.8979,1.21507 l 5.5439,7.7836 h -2.8911 l -4.7345,-7.03179 h -2.201 v 7.03179 z m 2.3344,-8.79523 h 0.763 c 1.7449,0 2.9259,-0.3645 3.5352,-1.08961 0.6095,-0.72808 0.9161,-1.52538 0.9161,-2.39207 0,-0.51777 -0.1156,-0.97016 -0.3411,-1.35337 -0.2304,-0.3871 -0.5863,-0.68591 -1.07,-0.90504 -0.4832,-0.21827 -1.2574,-0.32565 -2.3192,-0.32565 h -1.484 z m 10.2556,8.79523 6.5955,-16.62511 h 2.3272 l 6.4988,16.62511 h -2.5499 l -1.8136,-4.60511 h -7.0433 l -1.8251,4.60511 z m 4.7089,-6.35711 h 5.6589 l -2.8182,-7.16545 z m 13.1201,6.35711 v -16.62511 h 2.3582 v 14.86076 h 7.3841 v 1.76435 z m -336.0854,26.19408 v -16.6242 h 5.5243 c 2.1361,0 3.7507,0.31011 4.8505,0.92813 1.1003,0.61739 1.9627,1.51797 2.5882,2.70648 0.6245,1.18504 0.9397,2.61471 0.9397,4.28265 0,1.58345 -0.2876,3.03283 -0.8597,4.3482 -0.5708,1.31876 -1.4407,2.37355 -2.6107,3.16655 -1.1695,0.79377 -2.7913,1.19219 -4.873,1.19219 z m 2.3581,-1.76344 h 3.0213 c 1.5716,0 2.7486,-0.24866 3.5309,-0.74759 0.7819,-0.498 1.3957,-1.28387 1.8363,-2.36522 0.4407,-1.07731 0.6634,-2.27783 0.6634,-3.60493 0,-1.16873 -0.1922,-2.23058 -0.5716,-3.19304 -0.3835,-0.96302 -1.0009,-1.73744 -1.8557,-2.31584 -0.8513,-0.57924 -2.4155,-0.8707 -4.6819,-0.8707 h -1.9431 z m 21.6659,2.17836 c -1.5714,0 -2.9405,-0.3532 -4.1061,-1.05478 -1.1617,-0.70568 -2.0663,-1.73342 -2.7071,-3.08306 -0.6399,-1.35281 -0.9585,-2.88279 -0.9585,-4.5888 0,-1.64858 0.3074,-3.14762 0.9163,-4.49733 0.6104,-1.35365 1.5108,-2.39692 2.699,-3.12904 1.1926,-0.73245 2.5768,-1.1002 4.1564,-1.1002 1.5794,0 2.9639,0.36802 4.1562,1.1002 1.1884,0.73212 2.0899,1.77539 2.6992,3.12904 0.6097,1.34971 0.9167,2.84875 0.9167,4.49733 0,1.64116 -0.303,3.13258 -0.9046,4.4748 -0.6026,1.34532 -1.4921,2.38782 -2.6723,3.1354 -1.181,0.74382 -2.5766,1.11644 -4.1952,1.11644 z m 0,-1.76427 c 1.6761,0 2.9754,-0.62446 3.8914,-1.87464 0.9168,-1.24989 1.377,-2.95252 1.377,-5.11118 0,-2.14658 -0.4641,-3.84115 -1.3884,-5.07968 -0.9234,-1.2388 -2.2163,-1.86 -3.88,-1.86 -1.6637,0 -2.9559,0.62092 -3.8801,1.86 -0.9236,1.23853 -1.3877,2.9331 -1.3877,5.07968 0,2.15866 0.46,3.86129 1.3764,5.11118 0.916,1.24989 2.2163,1.87464 3.8914,1.87464 z m 18.3545,1.34935 v -16.6242 h 5.0336 c 1.8638,0 3.1519,0.41748 3.8656,1.25391 0.7087,0.83186 1.0659,1.79001 1.0659,2.86733 0,0.62869 -0.1275,1.2499 -0.3759,1.86714 -0.2536,0.61385 -0.6102,1.15848 -1.0741,1.63798 -0.4641,0.47893 -1.0959,0.88533 -1.898,1.21507 l 5.5441,7.78277 h -2.8912 l -4.7347,-7.03089 h -2.2007 v 7.03089 z m 2.3346,-8.79517 h 0.763 c 1.7449,0 2.926,-0.3645 3.5349,-1.08876 0.6104,-0.72816 0.917,-1.52625 0.917,-2.39213 0,-0.51779 -0.1156,-0.97045 -0.3419,-1.35367 -0.2302,-0.3871 -0.5864,-0.68662 -1.0701,-0.90476 -0.4826,-0.21826 -1.2571,-0.32635 -2.319,-0.32635 h -1.484 z m 12.1999,8.79517 v -16.6242 h 2.358 v 16.6242 z m 13.4344,0.41464 c -1.5714,0 -2.9404,-0.35319 -4.106,-1.05478 -1.1616,-0.70569 -2.0665,-1.73342 -2.7065,-3.08305 -0.6408,-1.35282 -0.959,-2.8828 -0.959,-4.5888 0,-1.64859 0.3072,-3.14763 0.9169,-4.49734 0.609,-1.35365 1.51,-2.39694 2.699,-3.12904 1.1926,-0.73245 2.5759,-1.10021 4.1556,-1.10021 1.5803,0 2.9648,0.36804 4.1562,1.10021 1.1894,0.7321 2.09,1.77539 2.699,3.12904 0.6104,1.34971 0.9171,2.84875 0.9171,4.49734 0,1.64115 -0.3032,3.13257 -0.9049,4.47479 -0.6018,1.34532 -1.4914,2.38781 -2.6724,3.13538 -1.1808,0.74385 -2.5767,1.11646 -4.195,1.11646 z m 0,-1.76429 c 1.676,0 2.976,-0.62445 3.8921,-1.87462 0.9162,-1.2499 1.3762,-2.95252 1.3762,-5.11118 0,-2.14659 -0.464,-3.84116 -1.3873,-5.07968 -0.9245,-1.2388 -2.2165,-1.86001 -3.881,-1.86001 -1.6631,0 -2.9559,0.62092 -3.8792,1.86001 -0.9243,1.23852 -1.3884,2.93309 -1.3884,5.07968 0,2.15866 0.4598,3.86128 1.3761,5.11118 0.9163,1.24989 2.2164,1.87462 3.8915,1.87462 z m 18.3545,1.34936 v -16.6242 h 5.5243 c 2.1361,0 3.7507,0.31011 4.8506,0.92813 1.1007,0.61739 1.9629,1.51797 2.5881,2.70648 0.6246,1.18505 0.9397,2.61471 0.9397,4.28265 0,1.58345 -0.2876,3.03284 -0.8597,4.34821 -0.5708,1.31876 -1.4407,2.37355 -2.6107,3.16655 -1.1688,0.79378 -2.7913,1.19218 -4.873,1.19218 z m 2.3582,-1.76344 h 3.0214 c 1.5713,0 2.7484,-0.24865 3.5307,-0.74758 0.7825,-0.49801 1.3957,-1.28387 1.8364,-2.36522 0.4414,-1.07731 0.6633,-2.27783 0.6633,-3.60493 0,-1.16873 -0.1921,-2.23058 -0.5715,-3.19305 -0.3836,-0.96303 -1.0002,-1.73745 -1.8558,-2.31583 -0.8511,-0.57925 -2.4155,-0.87071 -4.6809,-0.87071 h -1.9442 z m 14.8722,1.76344 v -16.6242 h 9.3129 v 1.76344 h -6.9552 v 5.33716 h 5.8316 v 1.74084 h -5.8316 v 6.01932 h 7.4387 v 1.76344 z m 15.5323,3.08709 v -2.0898 c 0.8966,0.29457 1.6985,0.44079 2.404,0.44079 0.479,0 0.8897,-0.0883 1.2347,-0.2642 0.3453,-0.17659 0.6244,-0.46834 0.8392,-0.87408 0.2112,-0.41043 0.3185,-1.1811 0.3185,-2.31987 v -14.60413 h 2.3582 v 14.52382 c 0,1.90917 -0.4494,3.28945 -1.3423,4.14412 -0.8928,0.8553 -2.158,1.28076 -3.7918,1.28076 -0.5214,0 -1.1956,-0.0798 -2.0204,-0.23735 z m 9.4127,-3.08709 6.5945,-16.6242 h 2.327 l 6.499,16.6242 h -2.5493 l -1.8142,-4.6042 h -7.0427 l -1.8249,4.6042 z m 4.7085,-6.3562 h 5.659 l -2.8179,-7.16637 z m 13.1201,6.3562 v -16.6242 h 2.3118 l 8.362,12.83638 v -12.83638 h 2.0203 v 16.6242 h -2.3003 l -8.3734,-12.83984 v 12.83984 z m 16.9963,0 v -16.6242 h 9.313 v 1.76344 h -6.9551 v 5.33716 h 5.8315 v 1.74084 h -5.8315 v 6.01932 h 7.4386 v 1.76344 z m 12.4576,0 v -16.6242 h 2.3577 v 16.6242 z m 6.6405,0 v -16.6242 h 5.0345 c 1.8628,0 3.1508,0.41749 3.8646,1.25393 0.7088,0.83184 1.066,1.78999 1.066,2.86732 0,0.62869 -0.1275,1.24988 -0.3759,1.86714 -0.2536,0.61385 -0.6103,1.15849 -1.0741,1.63798 -0.4641,0.47894 -1.0959,0.88532 -1.8982,1.21507 l 5.5443,7.78276 h -2.8903 l -4.7357,-7.03088 h -2.2006 v 7.03088 z m 2.3346,-8.79517 h 0.763 c 1.7448,0 2.9258,-0.36449 3.5349,-1.08876 0.6103,-0.72815 0.917,-1.52623 0.917,-2.39213 0,-0.51779 -0.1155,-0.97044 -0.3419,-1.35366 -0.2303,-0.38711 -0.5863,-0.68662 -1.0694,-0.90475 -0.4831,-0.21827 -1.2579,-0.32636 -2.3197,-0.32636 h -1.484 z m 19.0057,9.2101 c -1.5723,0 -2.9404,-0.35319 -4.106,-1.05478 -1.1624,-0.70569 -2.0673,-1.73342 -2.7071,-3.08305 -0.6407,-1.35282 -0.9584,-2.8828 -0.9584,-4.5888 0,-1.64859 0.3066,-3.14763 0.9161,-4.49734 0.6097,-1.35365 1.5109,-2.39694 2.699,-3.12904 1.1926,-0.73245 2.5768,-1.10021 4.1564,-1.10021 1.5798,0 2.9639,0.36804 4.1565,1.10021 1.1881,0.7321 2.0889,1.77539 2.699,3.12904 0.6095,1.34971 0.9161,2.84875 0.9161,4.49734 0,1.64115 -0.303,3.13257 -0.905,4.47479 -0.6018,1.34532 -1.491,2.38781 -2.6721,3.13538 -1.181,0.74385 -2.5767,1.11646 -4.1945,1.11646 z m 0,-1.76429 c 1.6752,0 2.9753,-0.62445 3.8916,-1.87462 0.9161,-1.2499 1.3763,-2.95252 1.3763,-5.11118 0,-2.14659 -0.4641,-3.84116 -1.3877,-5.07968 -0.9243,-1.2388 -2.2164,-1.86001 -3.8802,-1.86001 -1.6637,0 -2.9558,0.62092 -3.88,1.86001 -0.9241,1.23852 -1.3884,2.93309 -1.3884,5.07968 0,2.15866 0.4605,3.86128 1.3769,5.11118 0.9163,1.24989 2.2156,1.87462 3.8915,1.87462"
       style="fill:#1d3c85;fill-opacity:1;fill-rule:nonzero;stroke:none;stroke-width:2.85761952"
       id="path144"
       inkscape:connector-curvature="0"
       inkscape:export-filename="C:\Users\suitedoalex\sites\ufrrj-logo-6.png"
       inkscape:export-xdpi="27.043652"
       inkscape:export-ydpi="27.043652" />
    <path
       d="m 887.09331,-354.84531 h 9.62219 v 28.31389 c 0,5.11626 0.87498,8.50456 2.61328,10.17737 1.73914,1.66285 3.99039,2.49413 6.76371,2.49413 2.73246,0 4.90797,-0.82153 6.51852,-2.46178 1.61111,-1.65176 2.42183,-4.81739 2.42183,-9.52678 v -28.99683 h 8.37424 v 28.37874 c 0,5.34945 -0.6715,9.1858 -2.01633,11.49853 -1.34279,2.32235 -3.28628,4.1555 -5.82467,5.48805 -2.55014,1.33161 -5.76041,1.99258 -9.65505,1.99258 -3.83951,0 -7.12576,-0.61809 -9.87737,-1.85428 -2.75331,-1.2465 -4.9291,-3.0805 -6.52909,-5.53092 -1.61112,-2.44044 -2.41126,-6.34079 -2.41126,-11.69025 z m 47.50449,46.20684 v -46.20684 h 28.82481 v 6.34025 h -19.20262 v 14.04515 h 15.7349 v 6.37252 h -15.7349 v 19.44892 z m 36.75186,0 v -46.20684 h 17.31374 c 3.54231,0 6.24131,0.44645 8.09707,1.33079 1.84601,0.88475 3.31803,2.22782 4.38383,4.02841 1.0782,1.80146 1.6112,3.82576 1.6112,6.09639 0,2.70705 -0.7785,5.26433 -2.3467,7.67334 -1.55772,2.39694 -3.76578,4.24069 -6.62512,5.50833 l 15.13852,21.56958 h -11.7251 l -11.49932,-18.88423 h -5.2806 v 18.88423 z m 9.06752,-25.22362 h 2.20751 c 3.96894,0 6.7111,-0.86441 8.21534,-2.5907 1.50429,-1.726 2.26155,-3.68716 2.26155,-5.87098 0,-1.89716 -0.61894,-3.39972 -1.84689,-4.50792 -1.22566,-1.11936 -3.7229,-1.67337 -7.49783,-1.67337 h -3.33968 z m 35.09872,25.22362 v -46.20684 h 17.3137 c 3.5415,0 6.2397,0.44645 8.0962,1.33079 1.8464,0.88475 3.3172,2.22782 4.3842,4.02841 1.0788,1.80146 1.6112,3.82576 1.6112,6.09639 0,2.70705 -0.7785,5.26433 -2.3468,7.67334 -1.5571,2.39694 -3.766,4.24069 -6.6245,5.50833 l 15.1371,21.56958 h -11.7236 l -11.5,-18.88423 h -5.2806 v 18.88423 z m 9.0669,-25.22362 h 2.2081 c 3.9684,0 6.7112,-0.86441 8.2146,-2.5907 1.5042,-1.726 2.2615,-3.68716 2.2615,-5.87098 0,-1.89716 -0.6187,-3.39972 -1.8461,-4.50792 -1.227,-1.11936 -3.7237,-1.67337 -7.4984,-1.67337 h -3.3397 z m 27.1823,33.34411 -0.063,-6.87314 c 2.4955,0.98019 5.0885,1.47022 7.7552,1.47022 1.1194,0 2.1118,-0.21405 2.9654,-0.62869 0.853,-0.41607 1.536,-1.08792 2.0478,-2.02439 0.512,-0.9378 0.7687,-2.87699 0.7687,-5.8086 v -40.46279 h 9.6541 v 39.42912 c 0,4.32645 -0.4909,7.48071 -1.4825,9.46307 -0.9921,1.97147 -2.5605,3.56001 -4.7265,4.76357 -2.1546,1.19394 -5.0134,1.79035 -8.5766,1.79035 -2.6456,0 -5.4306,-0.37298 -8.3425,-1.11879"
       style="fill:#1d3c85;fill-opacity:1;fill-rule:nonzero;stroke:none;stroke-width:2.85761952"
       id="path146"
       inkscape:connector-curvature="0"
       inkscape:export-filename="C:\Users\suitedoalex\sites\ufrrj-logo-6.png"
       inkscape:export-xdpi="27.043652"
       inkscape:export-ydpi="27.043652" />
    <path
       d="m 860.52148,172.32326 0.0146,-12.36584 10.33945,2.41297 5.91962,-8.48739 13.08215,5.773 -1.81036,8.44537 10.55636,8.74607 8.14388,-3.01596 7.17528,9.96764 -6.27043,6.01762 3.61938,13.57308 9.04807,2.11092 -0.30166,12.96932 -7.5407,1.50828 -5.12742,13.57223 6.03957,5.72355 -6.94428,10.86497 -8.14335,-3.6192 -10.25497,8.44457 1.5083,9.04891 -13.27077,4.52417 -5.12768,-7.23863 -10.78775,1.50765 0.11955,-11.4613 c 23.99702,-1.86948 36.18919,-16.02553 39.4777,-32.48317 l -23.62762,-5.32168 c -0.68103,7.36465 -7.59276,13.73082 -15.13492,13.73082 l -0.142,-0.95583 0.142,-29.79816 c 7.44665,-0.0911 14.29782,5.6241 15.10623,12.85616 l 23.38161,-3.88178 C 897.12749,188.00781 882.02192,173.0062 860.522,172.32326"
       style="fill:#fbc707;fill-opacity:1;fill-rule:evenodd;stroke:none;stroke-width:2.85761952"
       id="path164"
       inkscape:connector-curvature="0"
       inkscape:export-filename="C:\Users\suitedoalex\sites\ufrrj-logo-4.png"
       inkscape:export-xdpi="136.79451"
       inkscape:export-ydpi="136.79451" />
    <path
       d="m 861.22309,148.07086 c 0.10759,0 0.21545,8.5e-4 0.32212,0.002 l 0.0425,-0.0876 1.51229,0.0862 -0.13988,10.95892 8.24218,0.9453 5.0521,-7.83532 14.7436,6.08332 -1.48651,8.96951 9.03345,7.72844 8.65993,-3.40285 8.43013,12.45351 -6.15141,7.13401 3.56094,11.25046 9.11116,1.74317 v 15.34774 l -9.11116,1.872 -3.56094,11.12183 6.15141,7.13407 -8.43013,12.45323 -8.65993,-3.40291 -9.03345,7.72844 1.48651,8.97036 -14.7436,6.08275 -5.0521,-7.83561 -8.66657,1.31623 -0.0757,8.2237 -2.27461,0.007 -0.0425,-10.80923 12.46647,-2.14321 4.57497,7.21723 10.44864,-4.14901 -1.75284,-8.14479 11.8419,-9.97138 7.83611,3.29914 6.08341,-9.0732 -6.1724,-6.23308 4.83186,-14.18148 8.45418,-1.61115 v -11.15896 l -8.45418,-1.54715 -4.83186,-14.18036 6.1724,-6.23413 -6.08341,-9.07327 -7.83611,3.29942 -11.8419,-9.97082 1.75284,-8.14564 -10.44864,-4.149 -4.57497,7.21751 -12.36127,-1.73031 0.11689,-11.00837 c -14.40408,0.19779 -27.60432,5.37629 -37.96223,13.8889 0.39836,0.76552 0.62364,1.63622 0.62364,2.55898 0,3.0625 -2.48354,5.54603 -5.54636,5.54603 -0.96781,0 -1.87744,-0.24864 -2.67044,-0.68519 -8.18559,9.51723 -13.49446,21.58103 -14.57756,34.83721 2.06087,0.80925 3.51976,2.81731 3.51976,5.16486 0,2.34178 -1.45171,4.34412 -3.50342,5.15745 1.1996,14.03859 7.14207,26.72443 16.21616,36.45148 0.74837,-0.37722 1.59305,-0.58913 2.48833,-0.58913 3.06282,0 5.54703,2.48353 5.54703,5.54631 0,0.70145 -0.13017,1.37132 -0.36807,1.98949 10.29309,7.85559 23.2691,12.21375 36.23555,12.50521 0.6364,0.0141 1.56821,-0.0784 2.20487,-0.0841 l -0.0983,2.46581 c -0.65618,0.0283 -1.41186,0.13492 -2.06884,0.13634 -13.3777,0.0141 -27.0285,-4.77594 -37.72486,-12.90526 -0.98415,0.89409 -2.2924,1.4402 -3.72778,1.4402 -3.06282,0 -5.54637,-2.48353 -5.54637,-5.54723 0,-1.23845 0.40687,-2.38232 1.0936,-3.30564 -9.37296,-10.08829 -15.51853,-23.21471 -16.79278,-37.73717 -2.8305,-0.2529 -5.04918,-2.62843 -5.04918,-5.52351 0,-2.88873 2.21071,-5.262 5.03125,-5.52287 1.15762,-13.77721 6.69655,-26.31154 15.21966,-36.20034 -0.61461,-0.89275 -0.97511,-1.97402 -0.97511,-3.13971 0,-3.06278 2.48354,-5.54632 5.5461,-5.54632 1.21195,0 2.33305,0.38781 3.246,1.0473 11.0133,-9.07009 25.11824,-14.51985 40.49678,-14.51985"
       style="fill:#1d3c85;fill-opacity:1;fill-rule:evenodd;stroke:none;stroke-width:2.85761952"
       id="path166"
       inkscape:connector-curvature="0"
       inkscape:export-filename="C:\Users\suitedoalex\sites\ufrrj-logo-4.png"
       inkscape:export-xdpi="136.79451"
       inkscape:export-ydpi="136.79451" />
    <path
       d="m 847.53909,206.86725 c 1.95939,0.85615 3.33021,2.81081 3.33021,5.0854 0,2.24443 -1.33509,4.17818 -3.25384,5.05058 2.08572,5.4855 7.39233,9.385 13.60763,9.385 8.03655,0 14.55379,-6.51762 14.55379,-14.55382 0,-8.0365 -6.51724,-14.55391 -14.55379,-14.55391 -6.29168,0 -11.65315,3.99501 -13.684,9.58675 z m -2.46416,10.62607 c -2.94765,-0.1307 -5.29916,-2.5616 -5.29916,-5.54067 0,-2.95188 2.30781,-5.36569 5.21654,-5.53657 2.2673,-6.79226 8.6772,-11.68968 16.23158,-11.68968 8.01623,0 14.74599,5.51721 16.59912,12.96133 l 20.43169,-3.62154 c -3.58378,-17.16537 -18.80345,-30.06382 -37.03161,-30.06382 -9.83442,0 -18.79203,3.75547 -25.52086,9.90935 0.5482,0.85932 0.865,1.88 0.865,2.97505 0,3.06278 -2.48355,5.54639 -5.54637,5.54639 -0.72154,0 -1.41027,-0.13775 -2.04201,-0.38781 -2.7168,4.41475 -4.54987,9.42901 -5.25866,14.79788 1.98955,0.84245 3.38521,2.81308 3.38521,5.1097 0,2.28413 -1.38118,4.2462 -3.35452,5.09579 0.81492,5.9075 2.99388,11.38099 6.20906,16.08974 0.86898,-0.56441 1.90506,-0.89268 3.01819,-0.89268 3.06269,0 5.54623,2.48355 5.54623,5.54633 0,1.28082 -0.43369,2.45761 -1.16161,3.39662 6.5094,5.29915 14.814,8.47772 23.86034,8.47772 18.15218,0 33.31978,-12.79217 36.98526,-29.85044 l -20.42081,-3.68892 c -1.90453,7.36951 -8.59949,12.81616 -16.56365,12.81616 -7.46525,0 -13.81259,-4.78313 -16.14896,-11.44965 z m 16.14816,-46.10398 c 19.89041,-0.78586 37.19672,15.06737 40.57781,34.56087 l -23.58418,4.10047 c 0.089,1.23273 -0.0146,2.46722 -0.15395,3.70172 l 23.1384,4.2407 c -2.96626,19.41155 -19.73872,34.2863 -39.97848,34.2863 -9.88065,0 -18.93283,-3.54632 -25.95734,-9.43382 -0.69723,0.31717 -1.47204,0.49376 -2.28762,0.49376 -3.06282,0 -5.54637,-2.48445 -5.54637,-5.54723 0,-0.98012 0.25504,-1.90204 0.70149,-2.7016 -3.60544,-5.12079 -6.05259,-11.11666 -6.9597,-17.60517 -2.8831,-0.1985 -5.16075,-2.59932 -5.16075,-5.53241 0,-2.92278 2.26145,-5.31802 5.12994,-5.53177 0.78237,-5.77809 2.79928,-11.11785 5.77948,-15.79721 -0.899,-0.98585 -1.44826,-2.29805 -1.44826,-3.7369 0,-3.06249 2.48408,-5.54689 5.5469,-5.54689 1.11618,0 2.15638,0.33131 3.02709,0.89903 7.18351,-6.43397 16.71907,-10.43632 27.17514,-10.84956"
       style="fill:#1d3c85;fill-opacity:1;fill-rule:evenodd;stroke:none;stroke-width:2.85761952"
       id="path168"
       inkscape:connector-curvature="0"
       inkscape:export-filename="C:\Users\suitedoalex\sites\ufrrj-logo-4.png"
       inkscape:export-xdpi="136.79451"
       inkscape:export-ydpi="136.79451" />
    <path
       d="m 863.35689,190.72658 v 84.9853 h -4.39312 v -84.99447 c -14.92465,-3.94804 -24.86149,-15.65546 -16.91818,-31.87298 4.44479,8.74571 7.98753,15.8175 15.76799,20.61115 -3.52587,-21.33874 -3.15195,-33.91029 3.28146,-46.81843 6.66746,13.76175 6.86512,26.55701 2.97927,47.04271 8.03974,-4.79592 11.62406,-11.95197 16.13846,-20.83543 8.53295,17.41973 -2.43413,26.71157 -16.85588,31.88215"
       style="fill:#008940;fill-opacity:1;fill-rule:evenodd;stroke:none;stroke-width:2.85761952"
       id="path170"
       inkscape:connector-curvature="0"
       inkscape:export-filename="C:\Users\suitedoalex\sites\ufrrj-logo-4.png"
       inkscape:export-xdpi="136.79451"
       inkscape:export-ydpi="136.79451" />
    <path
       d="m 861.12333,206.04169 c 3.03281,0 5.49297,2.46015 5.49297,5.49377 0,3.03283 -2.46016,5.49291 -5.49297,5.49291 -3.03333,0 -5.4935,-2.46008 -5.4935,-5.49291 0,-3.03362 2.46017,-5.49377 5.4935,-5.49377"
       style="fill:#1d3c85;fill-opacity:1;fill-rule:evenodd;stroke:none;stroke-width:2.85761952"
       id="path172"
       inkscape:connector-curvature="0"
       inkscape:export-filename="C:\Users\suitedoalex\sites\ufrrj-logo-4.png"
       inkscape:export-xdpi="136.79451"
       inkscape:export-ydpi="136.79451" />
    <path
       d="m 793.1552,291.61054 h 6.63412 v 19.06571 c 0,3.44521 0.60266,5.727 1.80146,6.85377 1.1988,1.11929 2.7508,1.6791 4.66344,1.6791 1.88341,0 3.38347,-0.55311 4.49421,-1.65741 1.11033,-1.11278 1.66942,-3.24398 1.66942,-6.41531 v -19.52586 h 5.77284 v 19.10951 c 0,3.60224 -0.46198,6.1853 -1.38981,7.74297 -0.92596,1.5634 -2.26557,2.79789 -4.01522,3.6955 -1.75868,0.8967 -3.97192,1.3413 -6.65684,1.3413 -2.64745,0 -4.91289,-0.41536 -6.80999,-1.2482 -1.89815,-0.8401 -3.39835,-2.0746 -4.50138,-3.7246 -1.11073,-1.64258 -1.66225,-4.26958 -1.66225,-7.87189 z m 32.75113,31.11486 v -31.11486 h 19.87354 v 4.26875 h -13.23929 v 9.45811 h 10.84873 v 4.29155 h -10.84873 v 13.09645 z m 25.33875,0 v -31.11486 h 11.93661 c 2.44236,0 4.30306,0.30023 5.58289,0.89586 1.27253,0.59548 2.28669,1.50023 3.02231,2.71276 0.74266,1.2133 1.11127,2.57671 1.11127,4.10528 0,1.82256 -0.53691,3.54482 -1.61855,5.16649 -1.07421,1.61431 -2.59619,2.85594 -4.56767,3.70983 l 10.43721,14.52464 h -8.08424 l -7.92763,-12.71662 h -3.64024 v 12.71662 z m 6.25196,-16.98536 h 1.52198 c 2.73606,0 4.62612,-0.58207 5.66379,-1.74401 1.03675,-1.16244 1.55944,-2.48354 1.55944,-3.95383 0,-1.27758 -0.42665,-2.28921 -1.27372,-3.03615 -0.8456,-0.75329 -2.56696,-1.12676 -5.16939,-1.12676 h -2.3021 z m 24.198,16.98536 v -31.11486 h 11.93661 c 2.44157,0 4.30213,0.30023 5.5821,0.89586 1.27252,0.59548 2.28748,1.50023 3.0231,2.71276 0.74346,1.2133 1.11034,2.57671 1.11034,4.10528 0,1.82256 -0.53611,3.54482 -1.61829,5.16649 -1.07327,1.61431 -2.59552,2.85594 -4.567,3.70983 l 10.43642,14.52464 h -8.08265 l -7.92843,-12.71662 h -3.64117 v 12.71662 z m 6.25103,-16.98536 h 1.52291 c 2.73553,0 4.62612,-0.58207 5.66286,-1.74401 1.03702,-1.16244 1.55944,-2.48354 1.55944,-3.95383 0,-1.27758 -0.42665,-2.28921 -1.27252,-3.03615 -0.84587,-0.75329 -2.56696,-1.12676 -5.17046,-1.12676 h -2.30223 z m 18.74089,22.45399 -0.0425,-4.62929 c 1.72056,0.65977 3.5082,0.99072 5.34712,0.99072 0.77108,0 1.45569,-0.14411 2.0444,-0.42384 0.58778,-0.28043 1.0588,-0.73218 1.412,-1.3634 0.3532,-0.63152 0.52973,-1.93743 0.52973,-3.91067 v -27.24707 h 6.65604 v 26.55042 c 0,2.9136 -0.33846,5.03765 -1.02227,6.37252 -0.68448,1.3276 -1.76506,2.39694 -3.25795,3.20766 -1.48625,0.80353 -3.45627,1.20533 -5.91325,1.20533 -1.82483,0 -3.74464,-0.25007 -5.75212,-0.75245"
       style="fill:#1d3c85;fill-opacity:1;fill-rule:nonzero;stroke:none;stroke-width:2.85761952"
       id="path174"
       inkscape:connector-curvature="0"
       inkscape:export-filename="C:\Users\suitedoalex\sites\ufrrj-logo-4.png"
       inkscape:export-xdpi="136.79451"
       inkscape:export-ydpi="136.79451" />
  </g>
</svg>
